<svg width="371" height="87" viewBox="0 0 371 87" fill="none" xmlns="http://www.w3.org/2000/svg">
    <path d="M43.5 87C67.5244 87 87 67.5244 87 43.5C87 19.4756 67.5244 0 43.5 0C19.4756 0 0 19.4756 0 43.5C0 67.5244 19.4756 87 43.5 87Z"
          fill="#3D405B"/>
    <path d="M24.6932 31.3152C24.4405 31.1885 24.3142 31.0617 24.2501 31.0617C24.3142 30.9974 24.4405 30.9349 24.6932 30.7439C27.9923 28.833 31.2895 26.9884 34.5905 25.0794L41.0605 21.3864C41.3773 21.1953 41.5677 21.1329 41.6959 21.0685C41.6959 21.1953 41.76 21.3864 41.76 21.7704V37.5605L41.6959 37.9427C41.6959 38.9624 42.5216 39.7873 43.5339 39.7873C44.5463 39.7873 45.372 38.9586 45.372 37.9427C45.372 37.8159 45.372 37.6891 45.3079 37.6248V21.1347C45.372 21.1347 45.4983 21.1991 45.6246 21.2615C51.0823 24.4456 56.6003 27.6279 62.0542 30.7458C62.2446 30.8725 62.3709 30.9368 62.3709 30.9368C62.3068 31.0012 62.1805 31.0636 61.9901 31.1904C55.899 34.6923 49.872 38.1943 43.7828 41.6944C43.6621 41.8211 43.4698 41.8854 43.2794 41.8854C43.089 41.8854 42.8364 41.8211 42.58 41.6319C36.6171 38.1924 30.6561 34.7548 24.6913 31.3152H24.6932ZM24.5046 56.9112C24.5687 56.8468 24.695 56.7844 24.8854 56.6576C26.7235 55.6379 36.4964 50.0378 38.7776 48.7002C39.477 48.4467 39.8559 47.7448 39.8559 47.0447C39.8559 46.025 39.0302 45.2607 38.0781 45.2607C37.8877 45.2607 37.7614 45.2607 37.571 45.325L37.5069 45.2607L37.1261 45.5142C35.667 46.3428 26.2145 51.7538 24.8195 52.5824C23.9315 53.0914 23.1077 53.6022 22.9154 53.6022C22.7891 53.4111 22.7891 52.3289 22.7891 51.3092V34.435C22.8532 34.435 23.0417 34.4993 23.3584 34.6885C29.0687 37.9994 34.7771 41.3084 40.4874 44.5569C41.2491 45.0015 41.5036 45.448 41.5036 46.4015C41.5677 53.027 41.5677 59.6469 41.5677 66.2043V66.7757C41.4414 66.7114 41.315 66.6489 40.9983 66.4579C35.6707 63.34 30.3394 60.2183 24.9477 57.1609C24.6932 57.036 24.5668 56.9717 24.5046 56.9093V56.9112ZM44.9931 46.1518C44.9931 45.3874 45.1835 45.0052 45.8188 44.6874C51.7195 41.3122 57.6202 37.937 63.5171 34.5656C63.7698 34.4388 63.898 34.3745 64.0243 34.3745C64.0243 34.4388 64.0884 34.628 64.0884 34.8834V53.7914C64.0243 53.7914 63.898 53.727 63.6453 53.6003C62.4407 52.8984 59.0775 50.9894 55.8425 49.2091C53.305 47.8091 50.8938 46.4715 49.9418 45.8982C49.625 45.6447 49.2423 45.5161 48.7993 45.5161C47.7832 45.5161 47.0216 46.3447 47.0216 47.3002C47.0216 48.0021 47.4646 48.6378 48.0377 48.9556C49.116 49.5932 51.8439 51.12 54.6981 52.7111C57.8709 54.4952 61.106 56.3398 62.501 56.9755C62.501 56.9755 62.4369 57.0398 62.2484 57.1666C62.2484 57.1666 45.0553 67.1616 44.9931 67.1616V53.6646C45.0553 51.0537 45.0553 48.5715 44.9912 46.1518H44.9931ZM67.7042 47.2983V32.2744C67.7042 30.6833 67.0689 29.5368 65.6097 28.7081C59.3301 25.0794 52.6037 21.1953 45.9432 17.2487C45.0553 16.7398 44.2315 16.4844 43.4698 16.4844C42.6441 16.4844 41.8203 16.7379 40.8682 17.313C34.0155 21.3864 27.1647 25.2705 21.3922 28.5814C19.8708 29.4725 19.1714 30.5566 19.2355 32.2744C19.2355 39.9784 19.2996 47.7466 19.2355 55.513C19.2355 57.1685 19.8708 58.3131 21.2658 59.1418C27.9923 63.0259 34.7149 66.9081 41.4395 70.7942C42.1389 71.1763 42.8345 71.4317 43.4698 71.4317C44.1692 71.4317 44.8027 71.2407 45.5643 70.7942C52.2247 66.91 58.8871 63.0278 65.6116 59.208C67.0708 58.3793 67.7683 57.1704 67.7683 55.4525C67.642 52.7111 67.642 49.9735 67.7042 47.3002V47.2983Z"
          fill="#F99615"/>
    <path d="M43.5001 54.9475C49.8223 54.9475 54.9475 49.8223 54.9475 43.5001C54.9475 37.1779 49.8223 32.0527 43.5001 32.0527C37.1779 32.0527 32.0527 37.1779 32.0527 43.5001C32.0527 49.8223 37.1779 54.9475 43.5001 54.9475Z"
          fill="#3D405B"/>
    <path d="M42.1761 48.2521V45.0347C42.1761 44.8778 42.3143 44.75 42.484 44.75H44.513C44.6827 44.75 44.8209 44.8778 44.8209 45.0347V48.2521C44.8209 48.4091 44.959 48.5368 45.1288 48.5368H49.1452C49.315 48.5368 49.4531 48.4091 49.4531 48.2521V41.2808C49.4531 41.133 49.3722 40.9961 49.24 40.9158L43.7867 37.6254C43.613 37.5214 43.388 37.5214 43.2143 37.6254L37.761 40.9158C37.6268 40.9961 37.5479 41.133 37.5479 41.2808V48.2521C37.5479 48.4091 37.686 48.5368 37.8557 48.5368H41.8722C42.0419 48.5368 42.1801 48.4091 42.1801 48.2521H42.1761Z"
          fill="white"/>
    <path d="M43.5 87C67.5244 87 87 67.5244 87 43.5C87 19.4756 67.5244 0 43.5 0C19.4756 0 0 19.4756 0 43.5C0 67.5244 19.4756 87 43.5 87Z"
          fill="#3D405B"/>
    <path d="M24.6932 31.3152C24.4405 31.1885 24.3142 31.0617 24.2501 31.0617C24.3142 30.9974 24.4405 30.9349 24.6932 30.7439C27.9923 28.833 31.2895 26.9884 34.5905 25.0794L41.0605 21.3864C41.3773 21.1953 41.5677 21.1329 41.6959 21.0685C41.6959 21.1953 41.76 21.3864 41.76 21.7704V37.5605L41.6959 37.9427C41.6959 38.9624 42.5216 39.7873 43.5339 39.7873C44.5463 39.7873 45.372 38.9586 45.372 37.9427C45.372 37.8159 45.372 37.6891 45.3079 37.6248V21.1347C45.372 21.1347 45.4983 21.1991 45.6246 21.2615C51.0823 24.4456 56.6003 27.6279 62.0542 30.7458C62.2446 30.8725 62.3709 30.9368 62.3709 30.9368C62.3068 31.0012 62.1805 31.0636 61.9901 31.1904C55.899 34.6923 49.872 38.1943 43.7828 41.6944C43.6621 41.8211 43.4698 41.8854 43.2794 41.8854C43.089 41.8854 42.8364 41.8211 42.58 41.6319C36.6171 38.1924 30.6561 34.7548 24.6913 31.3152H24.6932ZM24.5046 56.9112C24.5687 56.8468 24.695 56.7844 24.8854 56.6576C26.7235 55.6379 36.4964 50.0378 38.7776 48.7002C39.477 48.4467 39.8559 47.7448 39.8559 47.0447C39.8559 46.025 39.0302 45.2607 38.0781 45.2607C37.8877 45.2607 37.7614 45.2607 37.571 45.325L37.5069 45.2607L37.1261 45.5142C35.667 46.3428 26.2145 51.7538 24.8195 52.5824C23.9315 53.0914 23.1077 53.6022 22.9154 53.6022C22.7891 53.4111 22.7891 52.3289 22.7891 51.3092V34.435C22.8532 34.435 23.0417 34.4993 23.3584 34.6885C29.0687 37.9994 34.7771 41.3084 40.4874 44.5569C41.2491 45.0015 41.5036 45.448 41.5036 46.4015C41.5677 53.027 41.5677 59.6469 41.5677 66.2043V66.7757C41.4414 66.7114 41.315 66.6489 40.9983 66.4579C35.6707 63.34 30.3394 60.2183 24.9477 57.1609C24.6932 57.036 24.5668 56.9717 24.5046 56.9093V56.9112ZM44.9931 46.1518C44.9931 45.3874 45.1835 45.0052 45.8188 44.6874C51.7195 41.3122 57.6202 37.937 63.5171 34.5656C63.7698 34.4388 63.898 34.3745 64.0243 34.3745C64.0243 34.4388 64.0884 34.628 64.0884 34.8834V53.7914C64.0243 53.7914 63.898 53.727 63.6453 53.6003C62.4407 52.8984 59.0775 50.9894 55.8425 49.2091C53.305 47.8091 50.8938 46.4715 49.9418 45.8982C49.625 45.6447 49.2423 45.5161 48.7993 45.5161C47.7832 45.5161 47.0216 46.3447 47.0216 47.3002C47.0216 48.0021 47.4646 48.6378 48.0377 48.9556C49.116 49.5932 51.8439 51.12 54.6981 52.7111C57.8709 54.4952 61.106 56.3398 62.501 56.9755C62.501 56.9755 62.4369 57.0398 62.2484 57.1666C62.2484 57.1666 45.0553 67.1616 44.9931 67.1616V53.6646C45.0553 51.0537 45.0553 48.5715 44.9912 46.1518H44.9931ZM67.7042 47.2983V32.2744C67.7042 30.6833 67.0689 29.5368 65.6097 28.7081C59.3301 25.0794 52.6037 21.1953 45.9432 17.2487C45.0553 16.7398 44.2315 16.4844 43.4698 16.4844C42.6441 16.4844 41.8203 16.7379 40.8682 17.313C34.0155 21.3864 27.1647 25.2705 21.3922 28.5814C19.8708 29.4725 19.1714 30.5566 19.2355 32.2744C19.2355 39.9784 19.2996 47.7466 19.2355 55.513C19.2355 57.1685 19.8708 58.3131 21.2658 59.1418C27.9923 63.0259 34.7149 66.9081 41.4395 70.7942C42.1389 71.1763 42.8345 71.4317 43.4698 71.4317C44.1692 71.4317 44.8027 71.2407 45.5643 70.7942C52.2247 66.91 58.8871 63.0278 65.6116 59.208C67.0708 58.3793 67.7683 57.1704 67.7683 55.4525C67.642 52.7111 67.642 49.9735 67.7042 47.3002V47.2983Z"
          fill="#F99615"/>
    <path d="M43.5001 54.9475C49.8223 54.9475 54.9475 49.8223 54.9475 43.5001C54.9475 37.1779 49.8223 32.0527 43.5001 32.0527C37.1779 32.0527 32.0527 37.1779 32.0527 43.5001C32.0527 49.8223 37.1779 54.9475 43.5001 54.9475Z"
          fill="#3D405B"/>
    <path d="M42.1761 48.2521V45.0347C42.1761 44.8778 42.3143 44.75 42.484 44.75H44.513C44.6827 44.75 44.8209 44.8778 44.8209 45.0347V48.2521C44.8209 48.4091 44.959 48.5368 45.1288 48.5368H49.1452C49.315 48.5368 49.4531 48.4091 49.4531 48.2521V41.2808C49.4531 41.133 49.3722 40.9961 49.24 40.9158L43.7867 37.6254C43.613 37.5214 43.388 37.5214 43.2143 37.6254L37.761 40.9158C37.6268 40.9961 37.5479 41.133 37.5479 41.2808V48.2521C37.5479 48.4091 37.686 48.5368 37.8557 48.5368H41.8722C42.0419 48.5368 42.1801 48.4091 42.1801 48.2521H42.1761Z"
          fill="white"/>
    <path d="M123.393 51.5328C120.953 51.5328 120 49.1513 120 46.0573V37.5449C120 35.9383 119.166 34.6291 117.44 34.6291H114.344V51.3546H108.037V11.7139H118.156C122.561 11.7139 125.952 14.1541 125.952 19.5102V26.5335C125.952 29.2124 124.763 31.1753 122.203 32.1283C124.763 33.0207 126.072 35.1635 126.072 37.6037V45.6993C126.072 47.4841 126.489 48.7345 127.262 49.7462V51.5328H123.393V51.5328ZM119.763 19.6883C119.763 18.0211 119.107 17.1287 117.62 17.1287H114.346V29.688H117.381C118.929 29.688 119.763 28.7956 119.763 26.8898V19.6883V19.6883Z"
          fill="#5B5D75"/>
    <path d="M136.132 51.3546V11.7139H151.965V17.3086H142.441V28.2613H149.047V33.4998H142.441V45.5835H151.965V51.3564H136.132V51.3546Z"
          fill="#5B5D75"/>
    <path d="M173.095 51.3546L172.083 43.6171H166.31L165.121 51.3546H159.348L165.952 11.7139H172.917L179.523 51.3546H173.095ZM169.404 22.1304L167.083 38.3198H171.369L169.404 22.1304V22.1304Z"
          fill="#5B5D75"/>
    <path d="M187.915 51.3546V11.7139H194.224V45.6405H203.331V51.3546H187.915Z" fill="#5B5D75"/>
    <path d="M222.379 51.3546V11.7139H238.212V17.3086H228.688V28.2613H235.294V33.4998H228.688V45.5835H238.212V51.3564H222.379V51.3546Z"
          fill="#5B5D75"/>
    <path d="M265.116 52.0693C263.687 52.0693 262.317 51.4744 261.544 50.6408C260.175 51.5332 258.509 52.0693 256.366 52.0693C250.83 52.0693 247.14 48.1417 247.14 42.7839V20.2854C247.14 14.9881 250.889 11 256.603 11C262.317 11 266.067 14.9881 266.067 20.2854V42.8444C266.067 44.2729 265.769 45.5821 265.233 46.5939C265.769 47.13 266.484 47.3669 268.031 47.3669V51.355C267.317 51.8306 266.544 52.0693 265.116 52.0693V52.0693ZM259.64 19.7493C259.64 18.0821 258.57 16.7141 256.605 16.7141C254.64 16.7141 253.509 18.0839 253.509 19.7493V43.32C253.509 44.9872 254.64 46.3552 256.605 46.3552C257.26 46.3552 257.914 46.2358 258.39 45.8796L256.902 44.5099L259.64 41.7116V19.7493V19.7493Z"
          fill="#5B5D75"/>
    <path d="M285.353 52.0689C279.997 52.0689 276.009 48.4976 276.009 43.1415V11.7139H282.377V43.259C282.377 45.2825 283.449 46.4136 285.353 46.4136C287.376 46.4136 288.449 45.2825 288.449 43.259V11.7139H294.58V43.1415C294.58 48.4976 290.711 52.0689 285.353 52.0689Z"
          fill="#5B5D75"/>
    <path d="M304.816 51.3546V11.7139H311.125V51.3546H304.816Z" fill="#5B5D75"/>
    <path d="M332.255 17.4868V51.3546H325.946V17.4868H319.815V11.7139H338.267V17.4868H332.255V17.4868Z" fill="#5B5D75"/>
    <path d="M358.439 35.4039V51.3546H352.13V35.4039L344.987 11.7139H351.416L355.642 28.3201L359.75 11.7139H366L358.441 35.4039H358.439Z"
          fill="#5B5D75"/>
    <path d="M108.558 73H110.61V67.338C110.61 66.16 110.42 64.45 110.268 63.31H110.344L111.332 66.312L113.308 71.86H114.79L116.804 66.312L117.792 63.31H117.868C117.716 64.45 117.526 66.16 117.526 67.338V73H119.616V60.574H116.956L114.828 66.654C114.562 67.452 114.372 68.174 114.144 69.086H114.068C113.84 68.174 113.612 67.452 113.346 66.654L111.218 60.574H108.558V73ZM129.403 66.426C129.802 65.115 130.163 63.709 130.486 62.341H130.562C130.923 63.69 131.284 65.115 131.683 66.426L132.101 67.908H128.985L129.403 66.426ZM125.223 73H127.522L128.472 69.675H132.595L133.545 73H135.939L131.911 60.574H129.251L125.223 73ZM141.555 73H143.816V68.174H145.659L148.319 73H150.846L147.901 67.832C149.383 67.319 150.352 66.16 150.352 64.279C150.352 61.486 148.357 60.574 145.754 60.574H141.555V73ZM143.816 66.369V62.379H145.526C147.217 62.379 148.129 62.873 148.129 64.279C148.129 65.666 147.217 66.369 145.526 66.369H143.816ZM156.921 73H159.182V69.409L160.93 67.205L164.255 73H166.744L162.279 65.438L166.098 60.574H163.59L159.239 66.16H159.182V60.574H156.921V73ZM172.361 73H180.056V71.1H174.622V67.49H179.068V65.59H174.622V62.474H179.866V60.574H172.361V73ZM189.178 73H191.439V62.474H195.011V60.574H185.606V62.474H189.178V73ZM201.164 73H203.425V68.459H205.173C207.852 68.459 209.923 67.205 209.923 64.431C209.923 61.543 207.852 60.574 205.097 60.574H201.164V73ZM203.425 66.654V62.379H204.926C206.731 62.379 207.681 62.911 207.681 64.431C207.681 65.932 206.826 66.654 205.002 66.654H203.425ZM216.326 73H223.717V71.1H218.587V60.574H216.326V73ZM232.532 66.426C232.931 65.115 233.292 63.709 233.615 62.341H233.691C234.052 63.69 234.413 65.115 234.812 66.426L235.23 67.908H232.114L232.532 66.426ZM228.352 73H230.651L231.601 69.675H235.724L236.674 73H239.068L235.04 60.574H232.38L228.352 73ZM249.457 73.228C251.053 73.228 252.345 72.62 253.39 71.423L252.174 70.074C251.49 70.834 250.635 71.271 249.552 71.271C247.481 71.271 246.17 69.561 246.17 66.768C246.17 63.994 247.614 62.322 249.59 62.322C250.559 62.322 251.3 62.683 251.946 63.31L253.143 61.923C252.364 61.068 251.11 60.346 249.552 60.346C246.398 60.346 243.852 62.759 243.852 66.825C243.852 70.948 246.341 73.228 249.457 73.228ZM259.549 73H267.244V71.1H261.81V67.49H266.256V65.59H261.81V62.474H267.054V60.574H259.549V73ZM286.439 73.228C289.346 73.228 291.151 71.613 291.151 67.528V60.574H288.966V67.699C288.966 70.378 287.94 71.271 286.439 71.271C284.938 71.271 283.95 70.378 283.95 67.699V60.574H281.689V67.528C281.689 71.613 283.532 73.228 286.439 73.228ZM298.319 73H300.58V68.459H302.328C305.007 68.459 307.078 67.205 307.078 64.431C307.078 61.543 305.007 60.574 302.252 60.574H298.319V73ZM300.58 66.654V62.379H302.081C303.886 62.379 304.836 62.911 304.836 64.431C304.836 65.932 303.981 66.654 302.157 66.654H300.58ZM313.481 73H316.92C320.606 73 322.886 70.872 322.886 66.73C322.886 62.607 320.606 60.574 316.806 60.574H313.481V73ZM315.742 71.176V62.417H316.654C319.124 62.417 320.549 63.69 320.549 66.73C320.549 69.789 319.124 71.176 316.654 71.176H315.742ZM331.839 66.426C332.238 65.115 332.599 63.709 332.922 62.341H332.998C333.359 63.69 333.72 65.115 334.119 66.426L334.537 67.908H331.421L331.839 66.426ZM327.659 73H329.958L330.908 69.675H335.031L335.981 73H338.375L334.347 60.574H331.687L327.659 73ZM345.237 73H347.498V62.474H351.07V60.574H341.665V62.474H345.237V73ZM357.223 73H364.918V71.1H359.484V67.49H363.93V65.59H359.484V62.474H364.728V60.574H357.223V73Z"
          fill="#8B8C9D"/>
</svg>
