<svg width="100" height="100" viewBox="0 0 100 100" fill="none" xmlns="http://www.w3.org/2000/svg">
    <circle cx="50" cy="50" r="46.5" fill="#F4AF14" stroke="white" stroke-width="7"/>
    <path d="M27.5679 59V57.152C28.4626 56.316 29.2766 55.5387 30.0099 54.82C30.7579 54.0867 31.3959 53.4047 31.9239 52.774C32.4666 52.1287 32.8846 51.5347 33.1779 50.992C33.4859 50.4347 33.6399 49.9067 33.6399 49.408C33.6399 48.7187 33.4639 48.198 33.1119 47.846C32.7599 47.4793 32.2759 47.296 31.6599 47.296C31.1466 47.296 30.6919 47.4427 30.2959 47.736C29.8999 48.0147 29.5259 48.3447 29.1739 48.726L27.4139 46.988C28.1032 46.2547 28.8072 45.7047 29.5259 45.338C30.2446 44.9567 31.1026 44.766 32.0999 44.766C32.7892 44.766 33.4126 44.876 33.9699 45.096C34.5419 45.3013 35.0332 45.602 35.4439 45.998C35.8546 46.3793 36.1699 46.8413 36.3899 47.384C36.6099 47.9267 36.7199 48.5353 36.7199 49.21C36.7199 49.7967 36.5952 50.398 36.3459 51.014C36.0966 51.6153 35.7592 52.224 35.3339 52.84C34.9232 53.4413 34.4466 54.05 33.9039 54.666C33.3759 55.2673 32.8259 55.8613 32.2539 56.448C32.6059 56.404 32.9946 56.3673 33.4199 56.338C33.8599 56.294 34.2486 56.272 34.5859 56.272H37.4019V59H27.5679ZM44.185 59.264C43.437 59.264 42.755 59.11 42.139 58.802C41.523 58.4793 40.995 58.01 40.555 57.394C40.1296 56.778 39.7923 56.0153 39.543 55.106C39.3083 54.1967 39.191 53.148 39.191 51.96C39.191 50.772 39.3083 49.7307 39.543 48.836C39.7923 47.9413 40.1296 47.1933 40.555 46.592C40.995 45.976 41.523 45.5213 42.139 45.228C42.755 44.92 43.437 44.766 44.185 44.766C44.933 44.766 45.615 44.92 46.231 45.228C46.847 45.5213 47.3676 45.976 47.793 46.592C48.233 47.1933 48.5703 47.9413 48.805 48.836C49.0543 49.7307 49.179 50.772 49.179 51.96C49.179 53.148 49.0543 54.1967 48.805 55.106C48.5703 56.0153 48.233 56.778 47.793 57.394C47.3676 58.01 46.847 58.4793 46.231 58.802C45.615 59.11 44.933 59.264 44.185 59.264ZM44.185 56.756C44.4636 56.756 44.7203 56.69 44.955 56.558C45.1896 56.4113 45.395 56.1547 45.571 55.788C45.747 55.4213 45.879 54.93 45.967 54.314C46.0696 53.698 46.121 52.9133 46.121 51.96C46.121 51.0067 46.0696 50.2293 45.967 49.628C45.879 49.012 45.747 48.5353 45.571 48.198C45.395 47.846 45.1896 47.604 44.955 47.472C44.7203 47.34 44.4636 47.274 44.185 47.274C43.921 47.274 43.6716 47.34 43.437 47.472C43.2023 47.604 42.997 47.846 42.821 48.198C42.645 48.5353 42.5056 49.012 42.403 49.628C42.3003 50.2293 42.249 51.0067 42.249 51.96C42.249 52.9133 42.3003 53.698 42.403 54.314C42.5056 54.93 42.645 55.4213 42.821 55.788C42.997 56.1547 43.2023 56.4113 43.437 56.558C43.6716 56.69 43.921 56.756 44.185 56.756ZM55.808 59.264C55.06 59.264 54.378 59.11 53.762 58.802C53.146 58.4793 52.618 58.01 52.178 57.394C51.7527 56.778 51.4153 56.0153 51.166 55.106C50.9313 54.1967 50.814 53.148 50.814 51.96C50.814 50.772 50.9313 49.7307 51.166 48.836C51.4153 47.9413 51.7527 47.1933 52.178 46.592C52.618 45.976 53.146 45.5213 53.762 45.228C54.378 44.92 55.06 44.766 55.808 44.766C56.556 44.766 57.238 44.92 57.854 45.228C58.47 45.5213 58.9907 45.976 59.416 46.592C59.856 47.1933 60.1933 47.9413 60.428 48.836C60.6773 49.7307 60.802 50.772 60.802 51.96C60.802 53.148 60.6773 54.1967 60.428 55.106C60.1933 56.0153 59.856 56.778 59.416 57.394C58.9907 58.01 58.47 58.4793 57.854 58.802C57.238 59.11 56.556 59.264 55.808 59.264ZM55.808 56.756C56.0867 56.756 56.3433 56.69 56.578 56.558C56.8127 56.4113 57.018 56.1547 57.194 55.788C57.37 55.4213 57.502 54.93 57.59 54.314C57.6927 53.698 57.744 52.9133 57.744 51.96C57.744 51.0067 57.6927 50.2293 57.59 49.628C57.502 49.012 57.37 48.5353 57.194 48.198C57.018 47.846 56.8127 47.604 56.578 47.472C56.3433 47.34 56.0867 47.274 55.808 47.274C55.544 47.274 55.2947 47.34 55.06 47.472C54.8253 47.604 54.62 47.846 54.444 48.198C54.268 48.5353 54.1287 49.012 54.026 49.628C53.9233 50.2293 53.872 51.0067 53.872 51.96C53.872 52.9133 53.9233 53.698 54.026 54.314C54.1287 54.93 54.268 55.4213 54.444 55.788C54.62 56.1547 54.8253 56.4113 55.06 56.558C55.2947 56.69 55.544 56.756 55.808 56.756ZM67.057 59.264C65.913 59.264 64.945 59.0807 64.153 58.714C63.361 58.3327 62.6864 57.8633 62.129 57.306L63.581 55.26C64.0064 55.6413 64.461 55.9713 64.945 56.25C65.4437 56.514 65.9937 56.646 66.595 56.646C67.3137 56.646 67.8857 56.4627 68.311 56.096C68.7364 55.7293 68.949 55.1867 68.949 54.468C68.949 53.764 68.7437 53.2287 68.333 52.862C67.937 52.4953 67.409 52.312 66.749 52.312C66.5437 52.312 66.3604 52.3267 66.199 52.356C66.0377 52.3707 65.8764 52.4073 65.715 52.466C65.5684 52.5247 65.407 52.598 65.231 52.686C65.0697 52.774 64.8864 52.884 64.681 53.016L63.229 52.092L63.625 45.03H71.545V47.758H66.419L66.177 50.376C66.441 50.2587 66.6904 50.178 66.925 50.134C67.1744 50.0753 67.4457 50.046 67.739 50.046C68.3404 50.046 68.905 50.134 69.433 50.31C69.9757 50.486 70.4524 50.75 70.863 51.102C71.2737 51.454 71.5964 51.9013 71.831 52.444C72.0657 52.9867 72.183 53.632 72.183 54.38C72.183 55.1573 72.0437 55.8467 71.765 56.448C71.4864 57.0493 71.1124 57.5627 70.643 57.988C70.1737 58.3987 69.6237 58.714 68.993 58.934C68.377 59.154 67.7317 59.264 67.057 59.264Z"
          fill="white"/>
</svg>
