<svg width="100" height="100" viewBox="0 0 100 100" fill="none" xmlns="http://www.w3.org/2000/svg">
<circle cx="50" cy="50" r="46.5" fill="#F4AF14" stroke="white" stroke-width="7"/>
<path d="M27.5679 59V57.152C28.4626 56.316 29.2766 55.5387 30.0099 54.82C30.7579 54.0867 31.3959 53.4047 31.9239 52.774C32.4666 52.1287 32.8846 51.5347 33.1779 50.992C33.4859 50.4347 33.6399 49.9067 33.6399 49.408C33.6399 48.7187 33.4639 48.198 33.1119 47.846C32.7599 47.4793 32.2759 47.296 31.6599 47.296C31.1466 47.296 30.6919 47.4427 30.2959 47.736C29.8999 48.0147 29.5259 48.3447 29.1739 48.726L27.4139 46.988C28.1032 46.2547 28.8072 45.7047 29.5259 45.338C30.2446 44.9567 31.1026 44.766 32.0999 44.766C32.7892 44.766 33.4126 44.876 33.9699 45.096C34.5419 45.3013 35.0332 45.602 35.4439 45.998C35.8546 46.3793 36.1699 46.8413 36.3899 47.384C36.6099 47.9267 36.7199 48.5353 36.7199 49.21C36.7199 49.7967 36.5952 50.398 36.3459 51.014C36.0966 51.6153 35.7592 52.224 35.3339 52.84C34.9232 53.4413 34.4466 54.05 33.9039 54.666C33.3759 55.2673 32.8259 55.8613 32.2539 56.448C32.6059 56.404 32.9946 56.3673 33.4199 56.338C33.8599 56.294 34.2486 56.272 34.5859 56.272H37.4019V59H27.5679ZM44.185 59.264C43.437 59.264 42.755 59.11 42.139 58.802C41.523 58.4793 40.995 58.01 40.555 57.394C40.1296 56.778 39.7923 56.0153 39.543 55.106C39.3083 54.1967 39.191 53.148 39.191 51.96C39.191 50.772 39.3083 49.7307 39.543 48.836C39.7923 47.9413 40.1296 47.1933 40.555 46.592C40.995 45.976 41.523 45.5213 42.139 45.228C42.755 44.92 43.437 44.766 44.185 44.766C44.933 44.766 45.615 44.92 46.231 45.228C46.847 45.5213 47.3676 45.976 47.793 46.592C48.233 47.1933 48.5703 47.9413 48.805 48.836C49.0543 49.7307 49.179 50.772 49.179 51.96C49.179 53.148 49.0543 54.1967 48.805 55.106C48.5703 56.0153 48.233 56.778 47.793 57.394C47.3676 58.01 46.847 58.4793 46.231 58.802C45.615 59.11 44.933 59.264 44.185 59.264ZM44.185 56.756C44.4636 56.756 44.7203 56.69 44.955 56.558C45.1896 56.4113 45.395 56.1547 45.571 55.788C45.747 55.4213 45.879 54.93 45.967 54.314C46.0696 53.698 46.121 52.9133 46.121 51.96C46.121 51.0067 46.0696 50.2293 45.967 49.628C45.879 49.012 45.747 48.5353 45.571 48.198C45.395 47.846 45.1896 47.604 44.955 47.472C44.7203 47.34 44.4636 47.274 44.185 47.274C43.921 47.274 43.6716 47.34 43.437 47.472C43.2023 47.604 42.997 47.846 42.821 48.198C42.645 48.5353 42.5056 49.012 42.403 49.628C42.3003 50.2293 42.249 51.0067 42.249 51.96C42.249 52.9133 42.3003 53.698 42.403 54.314C42.5056 54.93 42.645 55.4213 42.821 55.788C42.997 56.1547 43.2023 56.4113 43.437 56.558C43.6716 56.69 43.921 56.756 44.185 56.756ZM51.54 59V56.382H54.576V48.308H51.958V46.306C52.7207 46.1593 53.366 45.9833 53.894 45.778C54.422 45.5727 54.9353 45.3233 55.434 45.03H57.81V56.382H60.428V59H51.54ZM67.431 59.264C66.683 59.264 66.001 59.11 65.385 58.802C64.769 58.4793 64.241 58.01 63.801 57.394C63.3757 56.778 63.0384 56.0153 62.789 55.106C62.5544 54.1967 62.437 53.148 62.437 51.96C62.437 50.772 62.5544 49.7307 62.789 48.836C63.0384 47.9413 63.3757 47.1933 63.801 46.592C64.241 45.976 64.769 45.5213 65.385 45.228C66.001 44.92 66.683 44.766 67.431 44.766C68.179 44.766 68.861 44.92 69.477 45.228C70.093 45.5213 70.6137 45.976 71.039 46.592C71.479 47.1933 71.8164 47.9413 72.051 48.836C72.3004 49.7307 72.425 50.772 72.425 51.96C72.425 53.148 72.3004 54.1967 72.051 55.106C71.8164 56.0153 71.479 56.778 71.039 57.394C70.6137 58.01 70.093 58.4793 69.477 58.802C68.861 59.11 68.179 59.264 67.431 59.264ZM67.431 56.756C67.7097 56.756 67.9664 56.69 68.201 56.558C68.4357 56.4113 68.641 56.1547 68.817 55.788C68.993 55.4213 69.125 54.93 69.213 54.314C69.3157 53.698 69.367 52.9133 69.367 51.96C69.367 51.0067 69.3157 50.2293 69.213 49.628C69.125 49.012 68.993 48.5353 68.817 48.198C68.641 47.846 68.4357 47.604 68.201 47.472C67.9664 47.34 67.7097 47.274 67.431 47.274C67.167 47.274 66.9177 47.34 66.683 47.472C66.4484 47.604 66.243 47.846 66.067 48.198C65.891 48.5353 65.7517 49.012 65.649 49.628C65.5464 50.2293 65.495 51.0067 65.495 51.96C65.495 52.9133 65.5464 53.698 65.649 54.314C65.7517 54.93 65.891 55.4213 66.067 55.788C66.243 56.1547 66.4484 56.4113 66.683 56.558C66.9177 56.69 67.167 56.756 67.431 56.756Z" fill="white"/>
</svg>
