<svg width="100" height="100" viewBox="0 0 100 100" fill="none" xmlns="http://www.w3.org/2000/svg">
<circle cx="50" cy="50" r="46.5" fill="#F4AF14" stroke="white" stroke-width="7"/>
<path d="M27.5679 59V57.152C28.4626 56.316 29.2766 55.5387 30.0099 54.82C30.7579 54.0867 31.3959 53.4047 31.9239 52.774C32.4666 52.1287 32.8846 51.5347 33.1779 50.992C33.4859 50.4347 33.6399 49.9067 33.6399 49.408C33.6399 48.7187 33.4639 48.198 33.1119 47.846C32.7599 47.4793 32.2759 47.296 31.6599 47.296C31.1466 47.296 30.6919 47.4427 30.2959 47.736C29.8999 48.0147 29.5259 48.3447 29.1739 48.726L27.4139 46.988C28.1032 46.2547 28.8072 45.7047 29.5259 45.338C30.2446 44.9567 31.1026 44.766 32.0999 44.766C32.7892 44.766 33.4126 44.876 33.9699 45.096C34.5419 45.3013 35.0332 45.602 35.4439 45.998C35.8546 46.3793 36.1699 46.8413 36.3899 47.384C36.6099 47.9267 36.7199 48.5353 36.7199 49.21C36.7199 49.7967 36.5952 50.398 36.3459 51.014C36.0966 51.6153 35.7592 52.224 35.3339 52.84C34.9232 53.4413 34.4466 54.05 33.9039 54.666C33.3759 55.2673 32.8259 55.8613 32.2539 56.448C32.6059 56.404 32.9946 56.3673 33.4199 56.338C33.8599 56.294 34.2486 56.272 34.5859 56.272H37.4019V59H27.5679ZM44.185 59.264C43.437 59.264 42.755 59.11 42.139 58.802C41.523 58.4793 40.995 58.01 40.555 57.394C40.1296 56.778 39.7923 56.0153 39.543 55.106C39.3083 54.1967 39.191 53.148 39.191 51.96C39.191 50.772 39.3083 49.7307 39.543 48.836C39.7923 47.9413 40.1296 47.1933 40.555 46.592C40.995 45.976 41.523 45.5213 42.139 45.228C42.755 44.92 43.437 44.766 44.185 44.766C44.933 44.766 45.615 44.92 46.231 45.228C46.847 45.5213 47.3676 45.976 47.793 46.592C48.233 47.1933 48.5703 47.9413 48.805 48.836C49.0543 49.7307 49.179 50.772 49.179 51.96C49.179 53.148 49.0543 54.1967 48.805 55.106C48.5703 56.0153 48.233 56.778 47.793 57.394C47.3676 58.01 46.847 58.4793 46.231 58.802C45.615 59.11 44.933 59.264 44.185 59.264ZM44.185 56.756C44.4636 56.756 44.7203 56.69 44.955 56.558C45.1896 56.4113 45.395 56.1547 45.571 55.788C45.747 55.4213 45.879 54.93 45.967 54.314C46.0696 53.698 46.121 52.9133 46.121 51.96C46.121 51.0067 46.0696 50.2293 45.967 49.628C45.879 49.012 45.747 48.5353 45.571 48.198C45.395 47.846 45.1896 47.604 44.955 47.472C44.7203 47.34 44.4636 47.274 44.185 47.274C43.921 47.274 43.6716 47.34 43.437 47.472C43.2023 47.604 42.997 47.846 42.821 48.198C42.645 48.5353 42.5056 49.012 42.403 49.628C42.3003 50.2293 42.249 51.0067 42.249 51.96C42.249 52.9133 42.3003 53.698 42.403 54.314C42.5056 54.93 42.645 55.4213 42.821 55.788C42.997 56.1547 43.2023 56.4113 43.437 56.558C43.6716 56.69 43.921 56.756 44.185 56.756ZM50.814 59V57.152C51.7087 56.316 52.5227 55.5387 53.256 54.82C54.004 54.0867 54.642 53.4047 55.17 52.774C55.7127 52.1287 56.1307 51.5347 56.424 50.992C56.732 50.4347 56.886 49.9067 56.886 49.408C56.886 48.7187 56.71 48.198 56.358 47.846C56.006 47.4793 55.522 47.296 54.906 47.296C54.3927 47.296 53.938 47.4427 53.542 47.736C53.146 48.0147 52.772 48.3447 52.42 48.726L50.66 46.988C51.3493 46.2547 52.0533 45.7047 52.772 45.338C53.4907 44.9567 54.3487 44.766 55.346 44.766C56.0353 44.766 56.6587 44.876 57.216 45.096C57.788 45.3013 58.2793 45.602 58.69 45.998C59.1007 46.3793 59.416 46.8413 59.636 47.384C59.856 47.9267 59.966 48.5353 59.966 49.21C59.966 49.7967 59.8413 50.398 59.592 51.014C59.3427 51.6153 59.0053 52.224 58.58 52.84C58.1693 53.4413 57.6927 54.05 57.15 54.666C56.622 55.2673 56.072 55.8613 55.5 56.448C55.852 56.404 56.2407 56.3673 56.666 56.338C57.106 56.294 57.4947 56.272 57.832 56.272H60.648V59H50.814ZM62.437 59V57.152C63.3317 56.316 64.1457 55.5387 64.879 54.82C65.627 54.0867 66.265 53.4047 66.793 52.774C67.3357 52.1287 67.7537 51.5347 68.047 50.992C68.355 50.4347 68.509 49.9067 68.509 49.408C68.509 48.7187 68.333 48.198 67.981 47.846C67.629 47.4793 67.145 47.296 66.529 47.296C66.0157 47.296 65.561 47.4427 65.165 47.736C64.769 48.0147 64.395 48.3447 64.043 48.726L62.283 46.988C62.9724 46.2547 63.6764 45.7047 64.395 45.338C65.1137 44.9567 65.9717 44.766 66.969 44.766C67.6584 44.766 68.2817 44.876 68.839 45.096C69.411 45.3013 69.9024 45.602 70.313 45.998C70.7237 46.3793 71.039 46.8413 71.259 47.384C71.479 47.9267 71.589 48.5353 71.589 49.21C71.589 49.7967 71.4644 50.398 71.215 51.014C70.9657 51.6153 70.6284 52.224 70.203 52.84C69.7924 53.4413 69.3157 54.05 68.773 54.666C68.245 55.2673 67.695 55.8613 67.123 56.448C67.475 56.404 67.8637 56.3673 68.289 56.338C68.729 56.294 69.1177 56.272 69.455 56.272H72.271V59H62.437Z" fill="white"/>
</svg>
