<svg fill="none" height="40" width="155" xmlns="http://www.w3.org/2000/svg"><path d="M38.452 7.809v23.693h-4.83V7.809zm19.69 7.711v16.016c0 4.964-3.872 8.008-8.604 8.008-4.567 0-7.975-2.845-8.306-6.85l4.798.034c.199 1.687 1.688 2.448 3.673 2.448 1.853 0 3.607-.992 3.607-3.607v-2.018c-1.224.794-2.813 1.257-4.566 1.257-4.401 0-7.942-3.573-7.942-7.677 0-4.765 3.54-7.975 7.942-7.975 1.754 0 3.342.463 4.566 1.258v-.86zm-4.832 9.431v-3.904c-.992-1.423-2.35-1.92-3.706-1.92-2.383 0-4.004 1.589-4.004 4.004 0 1.787 1.655 3.706 4.004 3.706 1.357.034 2.747-.463 3.706-1.886zm24.091-1.62c0 4.93-3.64 8.438-8.537 8.438-4.931 0-8.571-3.508-8.571-8.438 0-4.898 3.64-8.472 8.57-8.472 4.898 0 8.538 3.574 8.538 8.472zm-4.666 0c0-2.317-1.522-4.203-3.871-4.203-2.383 0-3.905 1.886-3.905 4.203 0 2.382 1.522 4.17 3.905 4.17 2.35-.034 3.871-1.788 3.871-4.17zm34.646-7.776v15.917l-4.732.033v-.893c-1.224.794-2.813 1.29-4.567 1.29-4.4 0-7.941-3.739-7.941-8.338 0-4.633 3.54-8.373 7.941-8.373 1.754 0 3.343.497 4.567 1.291v-.893zm-4.765 10.424v-4.864c-.993-1.423-2.383-1.82-3.772-1.82-2.416 0-4.104 1.952-4.104 4.268 0 2.284 1.688 4.236 4.104 4.236 1.389 0 2.779-.397 3.772-1.82zm24.223-3.11v8.636h-4.666v-8.074c0-2.614-1.29-3.97-3.607-3.97-1.191 0-2.548.694-3.673 2.018v10.026h-4.765V15.59h4.765v1.19c1.291-1.025 2.813-1.588 4.6-1.588 4.235 0 7.346 2.979 7.346 7.678zm24.123-14.466h-1.191v2.813h-.695V8.403h-1.191v-.629h3.044l.033.63zM155 11.25h-.695V9.297l-.893 1.422h-.43l-.927-1.455v1.952h-.695V7.774h.497l1.323 2.085 1.324-2.085H155v3.475zM31.404 31.469h-4.898l-3.21-11.879-6.883 11.88H10.92l10.622-18.4-1.72-6.42L5.493 31.47H0L18.167 0h4.831l2.085 7.843h4.964l-3.375 5.89 4.732 17.737zM146.065 7.81v23.693h-4.831v-.893c-1.224.794-2.813 1.29-4.567 1.29-4.401 0-7.941-3.74-7.941-8.372 0-4.6 3.54-8.339 7.941-8.339 1.754 0 3.343.496 4.567 1.29v-8.67h4.831zm-4.831 18.167v-4.898c-.993-1.423-2.416-1.82-3.805-1.82-2.449 0-4.137 1.953-4.137 4.269 0 2.35 1.688 4.302 4.137 4.302 1.389 0 2.779-.397 3.805-1.853zM89.247 19.59c-1.058.133-3.507.265-4.963 2.25v9.663h-4.765V15.618h4.765v1.192c1.092-.927 2.713-1.49 4.963-1.258v4.037z" fill="#8b8c9d"/></svg>