<svg width="155" height="40" fill="none" xmlns="http://www.w3.org/2000/svg"><path d="M37.068 9.996l-.856-1.501a.88.88 0 0 0-1.388-.185l-1.968 1.964a.884.884 0 0 0-.11 1.114 15.418 15.418 0 0 1 2.35 10.73 15.414 15.414 0 0 1-8.218 11.434 15.448 15.448 0 0 1-7.044 1.702A15.307 15.307 0 0 1 12.6 33.46l3.329-3.327a11.033 11.033 0 0 0 12.033-2.867 11.008 11.008 0 0 0 1.79-12.23.88.88 0 0 0-1.418-.24l-1.992 1.976a.88.88 0 0 0-.235.824l.171.715a6.599 6.599 0 0 1-2.48 6.803 6.615 6.615 0 0 1-7.232.445l-.878-.503a.878.878 0 0 0-1.061.142L6.496 33.32a.88.88 0 0 0 .088 1.322l1.198.918a19.67 19.67 0 0 0 12.059 4.083 19.868 19.868 0 0 0 9.891-2.652 19.844 19.844 0 0 0 7.253-7.224 19.82 19.82 0 0 0 .083-19.771zm-5.172-5.911A19.665 19.665 0 0 0 19.837 0 19.867 19.867 0 0 0 9.94 2.65a19.844 19.844 0 0 0-7.256 7.226 19.82 19.82 0 0 0-.08 19.78l.857 1.5a.883.883 0 0 0 1.39.186l1.964-1.963a.887.887 0 0 0 .11-1.112 15.409 15.409 0 0 1 .378-17.439 15.433 15.433 0 0 1 12.534-6.427A15.293 15.293 0 0 1 27.069 6.2l-3.33 3.326a11.03 11.03 0 0 0-10.168 1.236 11.013 11.013 0 0 0-4.758 9.062c0 .183.05 1.017.065 1.161a11.065 11.065 0 0 0 1.04 3.637.882.882 0 0 0 1.42.241l1.992-1.992a.88.88 0 0 0 .236-.822l-.171-.717a6.597 6.597 0 0 1 2.479-6.803 6.613 6.613 0 0 1 7.233-.443l.878.503a.884.884 0 0 0 1.061-.142l8.13-8.122A.883.883 0 0 0 33.089 5l-1.193-.916zm33.42 21.207a.805.805 0 0 0-1.043.023c-1.275.989-2.753 1.904-4.915 1.904-3.957 0-7.176-3.33-7.176-7.425s3.207-7.453 7.147-7.453c1.711 0 3.56.72 4.919 1.912a.8.8 0 0 0 .62.277.698.698 0 0 0 .513-.29l1.287-1.324a.826.826 0 0 0 .251-.613.841.841 0 0 0-.294-.605C64.378 9.742 62.12 8.87 59.298 8.87c-6.024 0-10.926 4.928-10.926 10.984a10.927 10.927 0 0 0 3.202 7.72 10.948 10.948 0 0 0 7.724 3.204 10.331 10.331 0 0 0 7.36-2.958.907.907 0 0 0 .26-.658.719.719 0 0 0-.233-.513l-1.37-1.357zm9.367-16.124h-1.95a.856.856 0 0 0-.826.83V29.66a.855.855 0 0 0 .827.83h1.95a.857.857 0 0 0 .826-.83V9.997a.854.854 0 0 0-.827-.829zm23.069 6.619c0-3.649-3.007-6.619-6.704-6.619h-8.039a.83.83 0 0 0-.826.83V29.66a.83.83 0 0 0 .826.83h1.92a.857.857 0 0 0 .827-.83v-7.314h4.029l3.86 7.72a.808.808 0 0 0 .71.416h2.303a.827.827 0 0 0 .73-.392.879.879 0 0 0 0-.855l-3.915-7.29c2.646-1.175 4.279-3.51 4.279-6.16zm-3.603.06c0 1.851-1.528 3.42-3.337 3.42h-4.996v-6.688h4.989c1.812 0 3.337 1.496 3.337 3.268h.007zm24.583 9.445a.805.805 0 0 0-1.042.023c-1.275.989-2.754 1.904-4.916 1.904-3.956 0-7.176-3.33-7.176-7.425s3.206-7.453 7.146-7.453c1.711 0 3.559.72 4.92 1.912a.795.795 0 0 0 .625.277.702.702 0 0 0 .513-.29l1.287-1.324a.819.819 0 0 0-.043-1.218c-2.242-1.956-4.499-2.828-7.321-2.828-6.025 0-10.926 4.928-10.926 10.984a10.927 10.927 0 0 0 3.202 7.72 10.948 10.948 0 0 0 7.724 3.204 10.336 10.336 0 0 0 7.359-2.958.921.921 0 0 0 .26-.66.714.714 0 0 0-.233-.512l-1.379-1.356zm17.93 1.898h-7.736V9.997a.86.86 0 0 0-.827-.829h-1.949a.83.83 0 0 0-.827.83V29.66a.831.831 0 0 0 .827.83h10.512a.827.827 0 0 0 .765-.513.824.824 0 0 0 .063-.317v-1.633a.825.825 0 0 0-.828-.838zm17.511-14.7a.828.828 0 0 0 .826-.83V9.998a.829.829 0 0 0-.826-.829h-11.809a.83.83 0 0 0-.827.83V29.66a.83.83 0 0 0 .827.83h11.809a.83.83 0 0 0 .826-.83v-1.633a.829.829 0 0 0-.826-.83h-9.071v-5.866h7.618a.832.832 0 0 0 .828-.83V18.84a.854.854 0 0 0-.828-.831h-7.613v-5.52h9.066z" fill="#8B8C9D"/></svg>