<svg width="172" height="36" viewBox="0 0 172 36" fill="none" xmlns="http://www.w3.org/2000/svg">
<g clip-path="url(#clip0_2736_14)">
<path d="M70.4277 28.1546H68.569C68.4211 28.1546 68.2824 28.1003 68.1806 28.0009C68.0789 27.9015 68.0234 27.7659 68.0234 27.6213V13.8648C68.0234 13.7202 68.0789 13.5846 68.1806 13.4852C68.2824 13.3858 68.4211 13.3316 68.569 13.3316H70.363C70.511 13.3316 70.6497 13.3858 70.7514 13.4852C70.8531 13.5846 70.9086 13.7202 70.9086 13.8648V15.094C71.7131 13.5033 73.3869 12.8887 75.1531 12.8887C78.7781 12.8887 81.0067 15.4556 81.0067 18.7456V27.6122C81.0067 27.7569 80.9512 27.8924 80.8495 27.9919C80.7477 28.0913 80.609 28.1455 80.4611 28.1455H78.6024C78.5284 28.1455 78.4544 28.1274 78.3897 28.1003C78.3249 28.0732 78.2602 28.0371 78.214 27.9828C78.1585 27.9286 78.1215 27.8744 78.0938 27.8111C78.066 27.7478 78.0475 27.6755 78.0475 27.6032V19.2427C78.0475 17.1819 77.1598 15.5098 74.5151 15.5098C72.1847 15.5098 70.9826 17.3265 70.9826 19.5771V27.6122C70.9826 27.7569 70.9271 27.8924 70.8254 27.9919C70.7237 28.0913 70.5849 28.1455 70.437 28.1546H70.4277Z" fill="#8B8C9D"/>
<path d="M94.8871 25.8954C94.1658 27.3144 92.5567 28.5436 90.1894 28.5436C85.1311 28.5436 82.2737 24.0696 83.1615 18.8002C83.7718 15.1939 87.2488 12.6179 90.9662 12.9523C92.8896 13.1241 94.064 13.7116 94.6281 14.6696C94.6374 14.6877 94.6559 14.7058 94.6836 14.7148C94.7021 14.7148 94.7299 14.7239 94.7483 14.7148C94.7668 14.7148 94.7853 14.6968 94.8038 14.6787C94.8131 14.6606 94.8223 14.6425 94.8223 14.6154V6.55315C94.8223 6.45373 94.8408 6.36334 94.8778 6.27296C94.9148 6.18258 94.9703 6.10123 95.035 6.03796C95.0997 5.97469 95.183 5.92046 95.2754 5.88431C95.3679 5.84816 95.4604 5.83008 95.5621 5.83008H97.0139C97.2081 5.83008 97.4023 5.90239 97.541 6.047C97.6797 6.18258 97.763 6.36334 97.763 6.56219V25.4073C97.763 26.2298 97.763 26.9438 97.763 27.4409C97.763 27.5313 97.7445 27.6217 97.7075 27.7121C97.6705 27.7934 97.615 27.8748 97.5503 27.938C97.4856 28.0013 97.4023 28.0555 97.3191 28.0917C97.2359 28.1278 97.1342 28.1459 97.0417 28.1459H95.6453C95.257 28.1459 94.8871 27.8657 94.8871 27.4952V25.9044V25.8954ZM90.4761 25.9857C93.1855 25.9857 94.8593 23.6719 94.8593 20.626C94.8593 17.58 93.2225 15.4741 90.5038 15.4741C87.7851 15.4741 86.0281 17.6342 86.0281 20.6802C86.0281 23.7261 87.6372 25.9857 90.4761 25.9857V25.9857Z" fill="#8B8C9D"/>
<path d="M104.033 15.5096C104.754 14.0906 106.363 12.8613 108.73 12.8613C113.65 12.8613 116.48 17.0913 115.823 22.1619C115.296 26.1749 111.68 28.9226 107.574 28.4164C105.864 28.1995 104.809 27.6391 104.292 26.7353C104.282 26.7172 104.264 26.6991 104.236 26.6901C104.218 26.6901 104.19 26.6811 104.171 26.6901C104.153 26.6901 104.134 26.7082 104.116 26.7263C104.107 26.7443 104.097 26.7624 104.097 26.7895V34.8608C104.097 35.0506 104.023 35.2404 103.875 35.376C103.737 35.5116 103.552 35.5929 103.348 35.5929H101.896C101.702 35.5929 101.508 35.5206 101.369 35.376C101.231 35.2404 101.147 35.0597 101.147 34.8608V14.0363C101.147 13.5934 101.379 13.259 101.804 13.259H103.358C103.737 13.259 104.014 13.6657 104.014 14.0363V15.5096H104.033ZM108.444 15.4192C105.734 15.4192 104.06 17.733 104.06 20.788C104.06 23.843 105.697 25.9399 108.416 25.9399C111.135 25.9399 112.892 23.7797 112.892 20.7338C112.892 17.6878 111.283 15.4282 108.444 15.4282V15.4192Z" fill="#8B8C9D"/>
<path d="M133.281 20.7247C133.281 25.253 130.063 28.6153 125.523 28.6153C120.982 28.6153 117.773 25.253 117.773 20.7247C117.773 16.1965 120.992 12.8613 125.523 12.8613C130.054 12.8613 133.281 16.2146 133.281 20.7247ZM130.257 20.7247C130.257 17.3082 128.047 15.4554 125.532 15.4554C123.017 15.4554 120.797 17.3082 120.797 20.7247C120.797 24.1413 123.007 26.0303 125.532 26.0303C128.056 26.0303 130.257 24.1774 130.257 20.7247Z" fill="#8B8C9D"/>
<path d="M137.794 5.67605C138.182 5.76644 138.534 5.95624 138.811 6.23643C139.088 6.51662 139.283 6.86008 139.375 7.2397C139.468 7.61931 139.44 8.017 139.31 8.37854C139.181 8.74911 138.95 9.06546 138.644 9.31853C138.339 9.56257 137.96 9.71622 137.572 9.77045C137.174 9.81564 136.777 9.76141 136.416 9.59872C136.055 9.43603 135.75 9.18296 135.528 8.85757C135.306 8.53219 135.186 8.15258 135.177 7.76392C135.177 7.44758 135.241 7.13124 135.371 6.84201C135.51 6.55278 135.713 6.2997 135.963 6.10086C136.212 5.90201 136.508 5.7574 136.832 5.68509C137.146 5.61278 137.479 5.61278 137.794 5.68509V5.67605ZM135.833 27.4315V14.0456C135.833 13.8558 135.917 13.666 136.055 13.5304C136.194 13.3949 136.379 13.3225 136.582 13.3225H138.025C138.219 13.3225 138.413 13.3949 138.552 13.5304C138.691 13.666 138.765 13.8468 138.765 14.0456V27.4225C138.765 27.6123 138.691 27.8021 138.552 27.9377C138.413 28.0732 138.228 28.1455 138.025 28.1455H136.573C136.379 28.1455 136.185 28.0732 136.046 27.9377C135.907 27.8021 135.824 27.6213 135.824 27.4225L135.833 27.4315Z" fill="#8B8C9D"/>
<path d="M162.762 13.3223H165.499C165.647 13.3223 165.786 13.3765 165.888 13.4759C165.99 13.5753 166.045 13.7109 166.045 13.8555V15.4011C166.045 15.5457 165.99 15.6813 165.888 15.7807C165.786 15.8801 165.647 15.9344 165.499 15.9344H162.762V23.6441C162.762 24.9999 163.336 25.6778 164.88 25.6778C165.046 25.6778 165.25 25.6687 165.435 25.6507C165.509 25.6507 165.592 25.6507 165.666 25.6687C165.74 25.6959 165.805 25.732 165.86 25.7772C165.916 25.8314 165.962 25.8857 165.999 25.958C166.027 26.0303 166.045 26.1026 166.045 26.1749V27.612C166.045 27.7385 165.999 27.856 165.925 27.9464C165.851 28.0458 165.731 28.1091 165.61 28.1362C165.093 28.2447 164.565 28.2989 164.029 28.2989C161.44 28.2989 159.803 26.7624 159.803 24.078V15.9434H157.454C157.306 15.9434 157.168 15.8892 157.066 15.7898C156.964 15.6903 156.899 15.5548 156.899 15.4101V13.8646C156.899 13.72 156.955 13.5844 157.066 13.485C157.168 13.3855 157.306 13.3313 157.454 13.3313H157.722C159.359 13.3313 160.053 12.3461 160.053 11.0536V9.18268C160.053 9.03807 160.108 8.90249 160.21 8.80307C160.312 8.70364 160.45 8.64941 160.598 8.64941H162.207C162.355 8.64941 162.494 8.70364 162.596 8.80307C162.697 8.90249 162.762 9.03807 162.762 9.18268V13.3313V13.3223Z" fill="#8B8C9D"/>
<path d="M145.025 28.1546H143.167C143.019 28.1546 142.88 28.1003 142.778 28.0009C142.677 27.9015 142.621 27.7659 142.621 27.6213V13.8648C142.621 13.7925 142.63 13.7202 142.658 13.6569C142.686 13.5937 142.723 13.5304 142.778 13.4852C142.834 13.431 142.889 13.3948 142.954 13.3677C143.019 13.3406 143.093 13.3225 143.167 13.3225H144.961C145.035 13.3225 145.109 13.3406 145.173 13.3677C145.238 13.3948 145.303 13.431 145.349 13.4852C145.405 13.5394 145.442 13.5937 145.469 13.6569C145.497 13.7202 145.516 13.7925 145.516 13.8648V15.094C146.32 13.5033 147.994 12.8887 149.76 12.8887C153.385 12.8887 155.614 15.4556 155.614 18.7456V27.6122C155.614 27.7569 155.558 27.8924 155.447 27.9919C155.345 28.0913 155.207 28.1455 155.059 28.1455H153.2C153.052 28.1455 152.913 28.0913 152.812 27.9919C152.71 27.8924 152.645 27.7569 152.645 27.6122V19.2427C152.645 17.1819 151.757 15.5098 149.113 15.5098C146.773 15.5098 145.58 17.3265 145.58 19.5771V27.6122C145.58 27.7569 145.525 27.8924 145.423 27.9919C145.321 28.0913 145.183 28.1546 145.035 28.1546H145.025Z" fill="#8B8C9D"/>
<path d="M54.4943 21.4661C54.485 21.7914 54.5035 22.1078 54.5683 22.4241C54.6422 22.8941 54.8179 23.337 55.0769 23.7347C55.6225 24.6657 56.2975 25.0724 57.1298 25.461C57.6939 25.7141 58.3134 25.8316 58.933 25.8135C59.904 25.8135 60.69 25.6056 61.2818 25.1989C61.8274 24.8103 62.2435 24.277 62.484 23.6714C62.521 23.581 62.5949 23.4997 62.6782 23.4455C62.7614 23.3912 62.8631 23.3641 62.9648 23.3641H64.8513C64.9345 23.3641 65.0177 23.3822 65.0825 23.4183C65.1564 23.4545 65.2212 23.5087 65.2674 23.572C65.3136 23.6353 65.3506 23.7076 65.3599 23.7889C65.3784 23.8703 65.3691 23.9516 65.3506 24.0239C65.2212 24.5482 65.0085 25.0453 64.7126 25.4972C64.2872 26.1208 63.8988 26.6541 63.2977 27.0789C62.6874 27.5127 62.0031 27.8381 61.2726 28.046C60.5143 28.2629 59.719 28.3804 58.9237 28.3714C57.7401 28.3714 56.6951 28.1816 55.7797 27.802C54.9012 27.4404 54.1059 26.8981 53.4678 26.2112C52.8205 25.4972 52.3304 24.6657 52.0437 23.7618C51.7108 22.7495 51.5536 21.692 51.5629 20.6345C51.5629 19.6222 51.7293 18.619 52.0715 17.6609C52.3951 16.757 52.8853 15.9165 53.5326 15.1844C54.1891 14.4432 55.0029 13.8467 55.9276 13.4399C56.8431 13.0423 57.8418 12.8434 58.8498 12.8615C59.9594 12.8434 61.0506 13.0965 62.0401 13.5846C62.9556 14.0455 63.7601 14.7053 64.3889 15.5097C65.0085 16.3051 65.2674 17.0824 65.4893 18.1309C65.6743 19.0618 65.739 20.0199 65.6743 20.9689C65.6743 21.1045 65.6096 21.222 65.5078 21.3124C65.4061 21.4028 65.2766 21.457 65.1472 21.457H54.5035L54.4943 21.4661ZM63.0111 19.333C62.9741 18.8268 62.8631 18.3297 62.6782 17.8507C62.5025 17.4259 62.2435 17.0372 61.9199 16.7028C61.5315 16.287 61.0506 15.9526 60.5235 15.7267C59.9964 15.5007 59.4231 15.3832 58.8405 15.3832C58.2579 15.3832 57.5736 15.4465 57.102 15.6453C56.6304 15.8442 56.0941 16.1243 55.7612 16.4678C55.382 16.8384 55.0769 17.2813 54.8457 17.7513C54.6145 18.2484 54.485 18.7816 54.448 19.3239H63.0203L63.0111 19.333Z" fill="#8B8C9D"/>
<path d="M167.885 9.88823C167.996 9.6442 168.153 9.41824 168.347 9.22843C168.542 9.03862 168.782 8.89401 169.032 8.79458C169.559 8.5867 170.16 8.5867 170.687 8.79458C171.196 9.00247 171.612 9.39112 171.824 9.88823C171.935 10.1503 172 10.4215 171.991 10.7017C171.991 10.9909 171.935 11.2711 171.824 11.5332C171.713 11.7863 171.566 12.0123 171.371 12.2021C171.177 12.3919 170.946 12.5365 170.687 12.6359C170.16 12.8438 169.568 12.8438 169.032 12.6359C168.773 12.5365 168.542 12.3828 168.347 12.2021C168.153 12.0123 167.996 11.7863 167.885 11.5332C167.774 11.2711 167.709 10.9909 167.719 10.7017C167.719 10.4215 167.774 10.1413 167.885 9.88823V9.88823ZM168.236 11.4157C168.32 11.6236 168.449 11.8134 168.606 11.9851C168.764 12.1478 168.958 12.2744 169.161 12.3648C169.383 12.4551 169.624 12.5003 169.855 12.5003C170.086 12.5003 170.317 12.4551 170.53 12.3648C170.743 12.2744 170.937 12.1478 171.094 11.9851C171.251 11.8225 171.381 11.6326 171.464 11.4157C171.556 11.1898 171.603 10.9457 171.593 10.7017C171.593 10.4667 171.547 10.2317 171.464 10.0057C171.381 9.79785 171.251 9.60804 171.094 9.44535C170.937 9.28266 170.743 9.15612 170.539 9.06574C170.326 8.97535 170.086 8.93016 169.855 8.93016C169.624 8.93016 169.392 8.97535 169.17 9.0567C168.958 9.14708 168.764 9.27362 168.597 9.43631C168.44 9.599 168.31 9.78881 168.227 9.99669C168.135 10.2136 168.089 10.4577 168.098 10.6927C168.098 10.9367 168.135 11.1807 168.218 11.4067L168.236 11.4157ZM169.993 9.49958C170.289 9.49958 170.511 9.55381 170.65 9.67131C170.724 9.73458 170.78 9.81593 170.817 9.90631C170.853 9.99669 170.872 10.0961 170.863 10.1955C170.863 10.2859 170.863 10.3763 170.826 10.4577C170.789 10.539 170.743 10.6203 170.678 10.6746C170.539 10.783 170.382 10.8463 170.206 10.8553L170.918 11.9309H170.502L169.818 10.8825H169.411V11.9309H169.023V9.49958H169.984H169.993ZM169.827 10.5842C169.91 10.5842 169.993 10.5842 170.077 10.5842C170.151 10.5842 170.215 10.5661 170.28 10.539C170.345 10.5119 170.391 10.4757 170.428 10.4215C170.465 10.3492 170.484 10.2769 170.484 10.1955C170.484 10.1232 170.474 10.06 170.437 9.99669C170.41 9.9515 170.363 9.91535 170.308 9.88823C170.252 9.86112 170.197 9.84304 170.132 9.834C170.067 9.834 170.003 9.82496 169.938 9.82496H169.429V10.5932H169.836L169.827 10.5842Z" fill="#8B8C9D"/>
<path d="M32.9759 36.0002H12.7705C11.5961 36.0002 10.468 35.5392 9.6357 34.7348C8.80344 33.9214 8.34108 32.8187 8.33183 31.6708V27.947H4.42946C3.25505 27.947 2.12688 27.486 1.29462 26.6726C0.471613 25.8591 0 24.7564 0 23.6085V14.4707C0 13.5849 0.221936 12.7082 0.638065 11.9219C1.06344 11.1355 1.67376 10.4667 2.4228 9.96052L15.8406 0.967299C16.7561 0.343648 17.8473 0.00922681 18.957 0.000188397C20.0667 -0.00885002 21.1579 0.307495 22.0918 0.913068L36.0553 9.96052C36.8228 10.4576 37.4609 11.1355 37.8955 11.9309C38.3301 12.7263 38.5613 13.612 38.5613 14.5159V30.532C38.5613 31.9781 37.9695 33.37 36.9245 34.3914C35.8796 35.4127 34.4555 35.9912 32.9759 35.9912V36.0002ZM10.468 27.9379V31.6618C10.468 32.2583 10.7084 32.8277 11.143 33.2525C11.5776 33.6773 12.1602 33.9123 12.7705 33.9123H32.9667C33.8822 33.9123 34.7607 33.5508 35.408 32.9181C36.0553 32.2854 36.4159 31.4268 36.4159 30.5229V14.5159C36.4159 13.9555 36.2772 13.4042 35.9998 12.9161C35.7316 12.428 35.334 12.0032 34.8624 11.6959L20.9082 2.64844C20.3348 2.27787 19.6598 2.07902 18.9662 2.08806C18.2727 2.08806 17.6069 2.30498 17.0428 2.6846L3.63419 11.6869C3.17183 11.9942 2.79269 12.4099 2.53376 12.898C2.27484 13.3861 2.13613 13.9193 2.13613 14.4707V23.6085C2.13613 24.2051 2.37656 24.7745 2.81118 25.1993C3.24581 25.6241 3.82839 25.8591 4.43871 25.8591H8.35032V17.6884C8.35032 16.5405 8.82194 15.4378 9.6542 14.6243C10.4865 13.8109 11.6146 13.359 12.789 13.359H25.763C26.9374 13.359 28.0656 13.8199 28.8979 14.6243C29.7301 15.4378 30.1925 16.5405 30.1925 17.6884V23.6176C30.1925 24.7654 29.7209 25.8681 28.8979 26.6816C28.0656 27.495 26.9374 27.947 25.763 27.956H10.468V27.9379ZM10.468 25.8591H25.7445C26.3548 25.8591 26.9374 25.6241 27.3721 25.1993C27.8067 24.7745 28.0471 24.2051 28.0471 23.6085V17.6793C28.0471 17.0828 27.8067 16.5134 27.3721 16.0886C26.9374 15.6638 26.3548 15.4288 25.7445 15.4288H12.7705C12.1602 15.4288 11.5776 15.6638 11.143 16.0886C10.7084 16.5134 10.468 17.0828 10.468 17.6793V25.8591Z" fill="#8B8C9D"/>
</g>
<defs>
<clipPath id="clip0_2736_14">
<rect width="172" height="36" fill="white"/>
</clipPath>
</defs>
</svg>
