<svg width="240" height="41" viewBox="0 0 240 41" fill="none" xmlns="http://www.w3.org/2000/svg">
    <path d="M25.4695 2.71412C24.445 2.93453 23.6899 3.48147 22.9471 4.54269C22.5226 5.15086 22.1185 6.12229 21.9838 6.86106C21.9267 7.1631 21.9022 7.21616 21.7879 7.31412C21.7144 7.37127 21.3675 7.64474 21.0205 7.9182C19.5144 9.09371 18.5716 9.92637 17.7389 10.808C16.2409 12.3958 15.0205 14.0447 13.9797 15.8774C13.6205 16.51 13.0042 17.7141 13.0409 17.7141C13.0818 17.7141 19.5185 13.506 19.8369 13.2733C20.2614 12.959 21.0736 12.1304 21.3797 11.6937C21.6654 11.2896 21.943 10.8039 22.1552 10.3264L22.294 10.0202L22.2695 10.3549C22.2165 11.057 21.8899 12.057 21.4899 12.7304C21.0777 13.4202 20.5185 14.0488 19.9185 14.4937C19.7511 14.6162 16.8287 16.5345 13.4287 18.7509C10.0287 20.9713 7.2287 22.7998 7.21237 22.8162C7.17156 22.8529 7.50625 23.5345 7.84911 24.11L8.09401 24.5264L8.6287 24.008C10.4246 22.2692 12.6818 21.1672 15.245 20.7713C15.7471 20.6937 16.0736 20.6815 17.9389 20.6529C20.2042 20.6202 20.392 20.6039 21.3267 20.3835C23.7267 19.808 25.8573 18.2815 27.1471 16.1998C27.2654 16.0121 27.4777 15.6162 27.6165 15.3264C28.2001 14.1182 28.4614 13.0366 28.5307 11.5509C28.5511 11.106 28.6124 10.4284 28.6736 10.0202C28.7797 9.30188 29.0858 7.51412 29.1267 7.37943C29.1389 7.34269 29.2695 7.2529 29.4205 7.18351C29.7797 7.01616 29.996 6.87739 30.6246 6.41616C31.1348 6.03657 31.1471 6.02841 31.0736 5.95086C30.9389 5.80392 30.0695 5.24882 29.7063 5.08147L29.3552 4.9182L29.245 4.66106C29.0858 4.30188 28.796 3.90188 28.4409 3.57127C28.0042 3.15902 27.5716 2.92229 26.9552 2.75086C26.6246 2.66106 25.8083 2.64065 25.4695 2.71412Z"
          fill="#8B8C9D"/>
    <path d="M151.449 9.49826C150.236 9.5554 149.147 9.75132 148.249 10.0615C146.122 10.8003 144.608 12.0289 143.645 13.7962C143.269 14.4819 142.853 15.6125 142.616 16.5799C141.992 19.1309 142.032 22.7432 142.714 25.184C143.045 26.3595 143.632 27.686 144.138 28.3881C144.861 29.3921 145.836 30.2003 147.045 30.8085C148.677 31.6248 150.175 31.9105 152.612 31.8656C153.853 31.8411 154.489 31.7799 155.489 31.5921C156.445 31.4085 157.82 31.0166 158.673 30.6819L158.918 30.5881L158.93 29.1758L158.938 27.7636L158.481 27.9595C155.963 29.0207 152.881 29.4044 150.469 28.9595C148.987 28.6819 147.763 28.0452 146.987 27.1432C145.869 25.837 145.318 23.9472 145.241 21.1636C145.187 19.3513 145.387 17.6534 145.796 16.4085C146.118 15.4207 146.538 14.6901 147.147 14.0615C148.049 13.1309 149.192 12.6044 150.898 12.3391C151.494 12.2452 153.563 12.233 154.265 12.3187C155.677 12.4942 157.151 12.8738 158.408 13.3921C158.681 13.5023 158.91 13.5921 158.918 13.5921C158.93 13.5921 158.938 12.9595 158.938 12.1881V10.784L158.616 10.6615C156.383 9.80846 153.767 9.38397 151.449 9.49826Z"
          fill="#8B8C9D"/>
    <path d="M54.4902 20.694V31.6328H56.0208H57.5515V26.8777V22.1226H62.776H68.0004V26.8777V31.6328H69.5106H71.0209L71.0127 20.7022L71.0004 9.77567H69.5106H68.0209L68.0086 14.5185L68.0004 19.2655H62.776H57.5515L57.5433 14.5185L57.5311 9.77567L56.0127 9.76342L54.4902 9.75526V20.694Z"
          fill="#8B8C9D"/>
    <path d="M185.593 15.0042C183.556 15.143 181.752 15.5961 179.911 16.4287L179.389 16.6614V24.1471V31.6328H180.899H182.409V24.9838V18.3349L182.605 18.2695C183.617 17.9389 184.911 17.7553 186.234 17.7553C188.172 17.7553 189.087 18.1349 189.589 19.1593C189.678 19.3389 189.793 19.6451 189.846 19.8369L189.936 20.1838L189.948 25.9063L189.964 31.6328H191.491H193.021V26.294C193.021 23.1675 193.005 20.7553 192.981 20.4695C192.846 18.8369 192.311 17.6287 191.291 16.6614C190.389 15.8083 189.246 15.2981 187.756 15.0818C187.336 15.0206 186.034 14.9757 185.593 15.0042Z"
          fill="#8B8C9D"/>
    <path d="M115.612 15.0657C114.808 15.1392 113.861 15.3922 113.278 15.6902C111.968 16.3514 111.033 17.6779 110.812 19.1841C110.743 19.6698 110.784 20.6249 110.894 21.0412C111.172 22.0983 111.935 22.9881 113.057 23.5677C113.453 23.7718 114.523 24.1392 115.792 24.5106C116.69 24.7677 117.066 24.9065 117.527 25.1432C118.698 25.7432 119.159 26.3922 119.09 27.3432C119.057 27.7636 118.898 28.0779 118.547 28.4045C117.943 28.9718 117.168 29.1963 115.817 29.1963C114.38 29.1922 113.123 28.9065 111.882 28.3065C111.584 28.1596 111.331 28.0412 111.323 28.0412C111.315 28.0412 111.306 28.6534 111.306 29.4045V30.7636L111.788 30.9922C113.07 31.5963 114.404 31.8779 116.012 31.8779C117.225 31.8779 118 31.7718 118.857 31.4861C120.425 30.9636 121.539 29.7718 121.968 28.1636C122.074 27.7596 122.115 26.7963 122.041 26.2738C121.894 25.1841 121.466 24.3555 120.637 23.5596C119.874 22.8249 119.037 22.4412 116.666 21.731C115.053 21.2494 114.188 20.8045 113.894 20.3024C113.694 19.9636 113.723 19.3677 113.959 18.8983C114.212 18.3963 114.821 18.0045 115.612 17.8371C116.212 17.7106 117.241 17.682 117.959 17.7759C118.829 17.8861 119.784 18.1514 120.666 18.531L121.021 18.6861V17.3881V16.0943L120.686 15.9392C119.057 15.1963 117.359 14.9024 115.612 15.0657Z"
          fill="#8B8C9D"/>
    <path d="M130.816 15.0657C127.869 15.3637 125.967 16.9147 125.143 19.6861C124.539 21.7106 124.461 24.6861 124.959 26.7147C125.188 27.6371 125.559 28.531 126.004 29.2045C126.286 29.6331 126.91 30.2494 127.367 30.5514C128.494 31.2984 129.739 31.7392 131.098 31.878C132.404 32.0086 134.359 31.8698 135.796 31.5474C136.306 31.429 137.449 31.0739 137.808 30.9229L137.959 30.8576V29.5106C137.959 28.7678 137.951 28.1637 137.943 28.1637C137.935 28.1637 137.718 28.2576 137.461 28.3718C136.571 28.7759 135.571 29.0576 134.396 29.2331C133.906 29.3065 133.624 29.3229 132.571 29.3229C131.42 29.3269 131.298 29.3188 130.947 29.2371C129.416 28.8698 128.412 27.9106 127.935 26.3433C127.82 25.9596 127.669 25.2004 127.706 25.1637C127.718 25.1514 130.257 25.1433 133.351 25.1433H138.971L138.996 25.0494C139.057 24.7963 139.106 22.8616 139.065 22.2249C138.906 19.8045 138.082 17.9392 136.612 16.6657C135.69 15.8657 134.612 15.3637 133.347 15.1433C132.755 15.0412 131.457 15.0004 130.816 15.0657ZM132.967 17.8331C133.829 18.0494 134.596 18.5841 135.041 19.2861C135.241 19.5963 135.551 20.2535 135.694 20.6698C135.812 21.0208 135.976 21.7882 136.02 22.1922L136.049 22.4494H131.837H127.628L127.649 22.2739C127.747 21.5106 127.812 21.1065 127.898 20.7555C128.155 19.6616 128.575 18.9065 129.163 18.4616C129.637 18.1025 130.171 17.8902 130.878 17.7759C131.408 17.6902 132.518 17.7229 132.967 17.8331Z"
          fill="#8B8C9D"/>
    <path d="M167.491 15.0453C166.209 15.1473 165.197 15.3473 164.034 15.7269L163.511 15.8943V17.1759C163.511 18.38 163.515 18.4575 163.585 18.4289C163.85 18.3269 165.013 18.0167 165.507 17.9187C166.491 17.7228 167.074 17.6616 168.042 17.6616C169.332 17.6616 170.091 17.7963 170.817 18.1555C171.825 18.6494 172.397 19.6453 172.523 21.1351L172.556 21.5147L172.429 21.4943C171.519 21.3269 168.899 21.2738 167.838 21.4004C167.005 21.5024 166.319 21.6494 165.634 21.8738C164.601 22.2167 163.85 22.6494 163.189 23.2861C162.331 24.1106 161.94 25.0208 161.891 26.2861C161.854 27.2657 161.985 27.882 162.425 28.8004C162.707 29.3881 162.919 29.6983 163.323 30.1147C163.858 30.6657 164.474 31.029 165.47 31.38C166.478 31.731 167.454 31.8779 168.797 31.8779C170.438 31.8779 171.74 31.6208 172.915 31.0616C173.625 30.7228 174.234 30.2085 174.654 29.5963C174.866 29.282 175.23 28.5351 175.368 28.1228C175.589 27.482 175.593 27.38 175.593 24.0861C175.593 20.4738 175.572 20.2534 175.185 19.0983C174.442 16.8738 172.678 15.5187 169.993 15.1187C169.589 15.0575 167.936 15.0126 167.491 15.0453ZM171.258 23.7596C171.585 23.7841 172.009 23.8289 172.201 23.8534L172.552 23.8983V25.4494C172.548 26.7841 172.54 27.0371 172.478 27.2657C172.266 28.0616 171.76 28.5881 170.895 28.9147C169.809 29.3228 167.589 29.2902 166.495 28.8534C166.099 28.6943 165.683 28.4167 165.45 28.1514C164.866 27.4902 164.691 26.3351 165.058 25.5636C165.282 25.0983 165.715 24.6738 166.246 24.4085C166.691 24.1841 167.748 23.8983 168.589 23.7759C169.058 23.7106 170.474 23.6983 171.258 23.7596Z"
          fill="#8B8C9D"/>
    <path d="M201.98 15.0449C201.89 15.0531 201.604 15.0816 201.347 15.1061C200.449 15.1878 199.515 15.3878 198.543 15.698L197.96 15.8857V17.1674C197.96 17.8735 197.964 18.449 197.972 18.449C197.98 18.449 198.123 18.4041 198.29 18.347C199.025 18.0939 200.307 17.8204 201.225 17.7102C201.862 17.6368 203.27 17.649 203.809 17.7306C205.56 18.0041 206.437 18.747 206.817 20.2776C206.894 20.5959 207.009 21.4531 206.976 21.4857C206.968 21.4939 206.747 21.4776 206.49 21.4449C206.233 21.4163 205.568 21.3674 205.009 21.3388C203.053 21.2408 201.417 21.4204 200.021 21.8857C198.343 22.4408 197.147 23.4327 196.637 24.6939C196.213 25.7388 196.196 27.0857 196.592 28.2041C196.89 29.0327 197.445 29.8857 197.996 30.3633C198.768 31.0245 200.074 31.551 201.511 31.7837C202.188 31.8898 204.266 31.8898 204.919 31.7837C206.413 31.5347 207.621 31.0531 208.38 30.3959C209.049 29.8163 209.727 28.6041 209.947 27.5919C210.017 27.2735 210.021 26.9919 210.021 24.0816C210.021 21.2408 210.013 20.8735 209.947 20.4572C209.702 18.9102 209.168 17.7878 208.249 16.8776C207.278 15.9102 205.988 15.3306 204.307 15.1021C203.976 15.0572 202.278 15.0163 201.98 15.0449ZM206.327 23.8163C206.629 23.849 206.902 23.8898 206.931 23.898C206.976 23.9143 206.984 24.2245 206.972 25.5388L206.96 27.1633L206.849 27.4612C206.711 27.8449 206.535 28.1143 206.262 28.3633C205.625 28.947 204.715 29.1919 203.225 29.1919C202.029 29.1919 201.27 29.049 200.592 28.7021C200.209 28.5021 199.731 28.0327 199.56 27.6735C199.302 27.151 199.229 26.3429 199.388 25.8286C199.592 25.1633 200.176 24.5959 200.98 24.2735C201.441 24.0898 202.556 23.8327 203.266 23.7388C203.596 23.698 205.796 23.751 206.327 23.8163Z"
          fill="#8B8C9D"/>
    <path d="M220.776 15.0491C219.311 15.1471 218.193 15.3267 216.797 15.6777C216.14 15.8451 214.756 16.2859 214.136 16.5267L213.797 16.6573V24.1471V31.6328H215.307H216.817V25.0451V18.4573L217.34 18.3308C218.625 18.0287 220.299 17.8002 221.266 17.7961C221.458 17.7961 221.654 17.7838 221.707 17.7716L221.797 17.7471V16.3838V15.0206L221.381 15.0287C221.148 15.0328 220.879 15.041 220.776 15.0491Z"
          fill="#8B8C9D"/>
    <path d="M81.4894 15.1106C80.1384 15.2453 78.8812 15.6943 77.7669 16.4453C76.9669 16.98 76.4077 17.6004 75.9628 18.4534C75.2934 19.7269 74.9669 21.1432 74.9097 23.0412C74.8363 25.5351 75.3098 27.5677 76.3179 29.082C77.1465 30.3269 78.7874 31.331 80.5792 31.6902C81.2976 31.833 81.7711 31.8779 82.6323 31.8779C84.6078 31.8779 86.0242 31.482 87.4691 30.5269C88.3507 29.9432 88.9344 29.2616 89.4283 28.233C90.0569 26.9392 90.3671 25.3555 90.3671 23.4698C90.3671 21.5718 90.0528 20.0045 89.4079 18.6738C88.9263 17.682 88.363 17.0249 87.4977 16.4453C86.3548 15.6779 85.1262 15.2453 83.6976 15.1065C83.1752 15.0534 82.016 15.0575 81.4894 15.1106ZM83.6935 17.8004C84.4772 17.8983 85.0772 18.1269 85.6895 18.5636C86.5466 19.18 87.016 20.1881 87.2324 21.8779C87.314 22.5473 87.3018 24.5351 87.212 25.2249C86.9793 26.9187 86.4813 27.8779 85.4936 28.5228C84.8487 28.9392 84.2568 29.1147 83.216 29.1841C82.1507 29.2534 81.0445 29.1269 80.4037 28.8616C79.0241 28.2861 78.3261 27.2085 78.0526 25.2249C77.9629 24.5718 77.9506 22.5269 78.0322 21.8779C78.1914 20.6208 78.5098 19.7106 78.9996 19.0943C79.518 18.4453 80.5343 17.9269 81.5302 17.8004C81.9466 17.7473 83.269 17.7473 83.6935 17.8004Z"
          fill="#8B8C9D"/>
    <path d="M93.6452 20.621C93.6616 25.8291 93.6616 25.9924 93.7432 26.4291C94.0411 28.021 94.5391 29.0781 95.4207 30.0047C96.6371 31.2822 98.335 31.9189 100.543 31.9189C103.164 31.9189 105.082 31.021 106.286 29.2291C106.674 28.6496 107.045 27.7353 107.221 26.9271C107.425 25.9883 107.429 25.8496 107.429 20.3802V15.2659H105.939H104.453L104.437 20.621C104.425 25.2618 104.413 26.0251 104.359 26.3067C104.241 26.9026 104.159 27.1598 103.951 27.5883C103.776 27.9516 103.698 28.0659 103.413 28.3516C103.135 28.6291 103.008 28.7189 102.69 28.87C101.91 29.2496 100.91 29.3843 99.8125 29.2618C99.2534 29.2006 98.8493 29.0904 98.4289 28.8822C97.7881 28.5638 97.4289 28.1965 97.1024 27.5312C96.9024 27.1189 96.8207 26.8618 96.7024 26.2659C96.6493 25.9843 96.6371 25.2251 96.6248 20.6006L96.6085 15.2659H95.1187H93.6289L93.6452 20.621Z"
          fill="#8B8C9D"/>
    <path d="M223.641 15.3347C223.653 15.3755 225.041 19.0571 226.727 23.5143L229.796 31.6245L229.698 31.902C229.098 33.653 228.298 34.7796 227.347 35.2245L227.041 35.3673H226.388C225.78 35.3632 225.27 35.302 224.747 35.1592L224.653 35.1347V36.4816V37.8326L224.87 37.8734C225.747 38.053 227.049 38.1347 227.621 38.0408C229.168 37.7959 230.388 36.7796 231.36 34.9387C231.486 34.702 231.654 34.3551 231.735 34.1632C231.858 33.8816 238.433 16.2285 238.699 15.4775L238.772 15.2653H237.168H235.564L233.405 21.3836C232.217 24.751 231.237 27.4938 231.229 27.4857C231.217 27.4734 230.225 24.7265 229.021 21.3755L226.833 15.2857L225.229 15.2734C223.711 15.2653 223.625 15.2694 223.641 15.3347Z"
          fill="#8B8C9D"/>
    <path d="M11.0042 27.2892L1.17969 33.8402L1.34703 34.0402C1.5552 34.2892 3.00418 35.7382 3.14703 35.8402L3.25316 35.9178L12.0042 30.7096C16.8164 27.8443 20.7756 25.4933 20.8001 25.4851C20.8246 25.4729 24.796 27.8198 29.6287 30.6933L38.4123 35.9219L38.6817 35.6851C39.0491 35.3627 40.494 33.8729 40.4736 33.8402C40.4613 33.8239 39.1021 32.9137 37.4532 31.8158L34.4532 29.8158L34.4491 26.8851V23.9586H32.6328H30.8164V25.6729V27.3872L25.8695 24.0892C23.147 22.2729 20.8981 20.779 20.8736 20.7627C20.8491 20.7504 16.4083 23.6851 11.0042 27.2892Z"
          fill="#8B8C9D"/>
    <path d="M17.6738 33.0202V34.3672H19.0412H20.4085V33.0202V31.6733H19.0412H17.6738V33.0202Z" fill="#8B8C9D"/>
    <path d="M21.2656 33.0202V34.3672H22.633H24.0003V33.0202V31.6733H22.633H21.2656V33.0202Z" fill="#8B8C9D"/>
    <path d="M17.6738 36.6531V38H19.0412H20.4085V36.6531V35.3061H19.0412H17.6738V36.6531Z" fill="#8B8C9D"/>
    <path d="M21.2656 36.6531V38H22.633H24.0003V36.6531V35.3061H22.633H21.2656V36.6531Z" fill="#8B8C9D"/>
</svg>
