<svg width="246" height="56" viewBox="0 0 246 56" fill="none" xmlns="http://www.w3.org/2000/svg">
<g clip-path="url(#clip0)">
<path d="M38.2236 16.7616C31.2731 19.8158 25.5627 22.3424 25.5164 22.3887C25.4794 22.4257 25.4609 29.9778 25.4701 39.1681L25.4979 55.8828L38.1311 50.1909C45.0816 47.0627 50.792 44.4713 50.8383 44.4343C50.8753 44.3973 50.8938 36.9099 50.8845 27.7936L50.8568 11.2178L38.2236 16.7616Z" fill="#8B8C9D"/>
<path d="M0 17.002V22.4532L3.32257 23.9988C5.15508 24.8503 6.71919 25.5722 6.79323 25.5999C6.9228 25.6555 6.94131 25.1187 6.94131 20.158V14.6512L6.69142 14.5309C6.33973 14.3735 0.259142 11.6525 0.120316 11.597C0.0277652 11.56 0 12.6798 0 17.002Z" fill="#8B8C9D"/>
<path d="M8.16243 20.6946L8.19019 26.2292L11.522 27.784C13.3545 28.6355 14.8816 29.3389 14.9186 29.3389C14.9557 29.3389 14.9927 26.8307 14.9927 23.7581L14.9834 18.1865L11.6516 16.7057C9.81909 15.8912 8.28274 15.2064 8.22721 15.1971C8.17168 15.1786 8.15317 17.1962 8.16243 20.6946Z" fill="#8B8C9D"/>
<path d="M16.1963 24.3233V29.9412L18.4453 30.9777C19.6762 31.5423 21.4069 32.3475 22.2861 32.7547L23.878 33.4951L23.8595 27.794L23.8317 22.1021L20.8238 20.7601C19.1672 20.029 17.455 19.2608 17.0107 19.0664L16.1963 18.7055V24.3233Z" fill="#8B8C9D"/>
<path d="M154.976 20.7872C151.505 21.3981 148.636 23.7211 147.331 26.9789C146.776 28.3857 146.581 29.3297 146.535 31.0049C146.461 33.4019 146.804 35.2714 147.655 37.0762C148.22 38.2701 148.729 38.9827 149.654 39.8897C150.922 41.1392 152.486 41.9536 154.374 42.3608C155.466 42.5922 158.382 42.6015 159.326 42.3701C162.324 41.6389 164.546 39.899 165.897 37.215C166.202 36.5949 166.739 34.9938 166.822 34.4015L166.887 33.9665H164.86H162.833L162.667 34.6236C162.343 35.8915 161.473 37.3353 160.566 38.122C160.038 38.5755 159.196 39.0475 158.539 39.2511C157.762 39.501 156.346 39.5288 155.494 39.3067C153.634 38.8161 152.005 37.2705 151.228 35.2529C150.709 33.9017 150.635 33.4389 150.635 31.5139C150.635 29.9868 150.663 29.6629 150.839 29.015C151.551 26.4421 153.236 24.5726 155.439 23.9155C156.16 23.6933 157.771 23.6933 158.659 23.9062C160.436 24.3412 161.538 25.313 162.5 27.2751L162.917 28.1358H164.981H167.044L166.915 27.6915C166.304 25.6369 164.934 23.6286 163.398 22.5365C162.167 21.6572 160.547 21.0186 158.909 20.7687C157.817 20.6114 155.957 20.6114 154.976 20.7872Z" fill="#8B8C9D"/>
<path d="M60.1582 31.6066V42.0186H62.1018H64.0453L64.0638 34.7626L64.0916 27.5066L68.7839 34.7348L73.467 41.9723L75.6975 42L77.928 42.0186V31.6066V21.1946H75.9844H74.0408L74.0223 28.4784L73.9945 35.7621L69.2745 28.4784L64.5544 21.1946H62.3609H60.1582V31.6066Z" fill="#8B8C9D"/>
<path d="M0 28.5333V33.2719L3.38736 34.8915C5.24763 35.78 6.80248 36.5297 6.85801 36.5389C6.91354 36.5574 6.93205 34.7805 6.9228 31.754L6.89503 26.9321L3.52619 25.3588C1.66591 24.4888 0.120316 23.7854 0.0740406 23.7854C0.0370203 23.7854 0 25.9233 0 28.5333Z" fill="#8B8C9D"/>
<path d="M86.9606 25.2304C83.6473 25.8875 81.4631 28.0717 80.7319 31.4683C80.6024 32.0792 80.5653 32.6252 80.5746 33.8747C80.5838 35.3092 80.6116 35.5961 80.8245 36.4198C81.4723 38.8724 82.9439 40.7234 85.017 41.6582C87.3863 42.7318 90.6996 42.6762 93.0134 41.5101C95.0125 40.5013 96.3822 38.641 96.956 36.1422C97.0949 35.5498 97.1319 35.0501 97.1226 33.6433C97.1134 31.746 97.0301 31.2092 96.4748 29.8395C95.503 27.3961 93.5594 25.8227 90.8384 25.2582C89.8389 25.0546 87.9231 25.0361 86.9606 25.2304ZM90.1073 27.8033C91.6899 28.2198 92.9486 29.5155 93.5409 31.3295C93.8648 32.3198 93.9481 34.2819 93.7168 35.4573C93.4113 37.0121 92.4303 38.5392 91.3197 39.1871C89.8944 40.0293 87.9046 40.0571 86.5348 39.2611C84.7208 38.2153 83.712 35.9108 83.8879 33.1805C84.0915 29.8487 86.0258 27.683 88.8023 27.6738C89.2651 27.6738 89.8481 27.7293 90.1073 27.8033Z" fill="#8B8C9D"/>
<path d="M99.1221 33.726V42.0186H100.834H102.546L102.565 38.7515L102.593 35.4937H105.23C107.868 35.4937 107.877 35.4937 108.322 35.7251C109.044 36.0953 109.118 36.3174 109.118 38.1499C109.118 39.8436 109.247 40.7043 109.627 41.528L109.849 42.0186H111.663H113.467L113.079 41.2504L112.69 40.4915L112.634 38.4553C112.56 35.8824 112.44 35.4197 111.598 34.5775L111.052 34.0407L111.505 33.5594C112.412 32.6061 112.773 31.6806 112.764 30.3572C112.755 29.6723 112.709 29.3576 112.542 28.9226C111.959 27.3955 110.793 26.3312 109.071 25.7481L108.331 25.4982L103.731 25.4705L99.1221 25.4427V33.726ZM107.877 28.2748C108.849 28.5617 109.432 29.3391 109.441 30.3572C109.441 31.2734 109.034 31.9768 108.192 32.4673L107.776 32.7172L105.166 32.745L102.546 32.7727V30.459V28.1359H104.981C106.859 28.1359 107.526 28.1637 107.877 28.2748Z" fill="#8B8C9D"/>
<path d="M113.745 26.794V28.1359H116.66H119.576V35.0772V42.0186H121.288H123V35.0772V28.1359H125.684H128.368V26.794V25.452H121.057H113.745V26.794Z" fill="#8B8C9D"/>
<path d="M129.941 33.7353V42.0186H131.7H133.458V38.3628V34.707H137.299H141.14V38.3628V42.0186H142.667H144.194V33.7353V25.452H142.667H141.14V28.7375V32.0231H137.299H133.458V28.7375V25.452H131.7H129.941V33.7353Z" fill="#8B8C9D"/>
<path d="M173.589 25.526C173.524 25.6371 166.962 41.9075 166.962 41.9723C166.962 42 167.749 42.0186 168.711 42.0186H170.451L171.386 39.7233L172.321 37.4373H175.384H178.447L179.364 39.6955C179.873 40.9357 180.298 41.963 180.317 41.9908C180.335 42.0093 181.131 42.0093 182.075 42L183.788 41.9723L182.788 39.4734C182.242 38.0944 180.761 34.3831 179.503 31.2086L177.217 25.452H175.43C174.44 25.452 173.616 25.489 173.589 25.526ZM176.43 32.2267L177.392 34.707H175.375H173.357L173.561 34.1702C174.486 31.7454 175.347 29.6353 175.403 29.6908C175.43 29.7278 175.893 30.8662 176.43 32.2267Z" fill="#8B8C9D"/>
<path d="M184.731 33.726V42.0186H186.259H187.786V38.733V35.4474H190.201C192.95 35.4474 193.459 35.3734 194.708 34.7903C195.273 34.5312 195.643 34.2721 196.115 33.8278C198.586 31.4307 197.938 27.6639 194.782 26.1091C193.57 25.5167 193.524 25.5075 188.924 25.4705L184.731 25.4427V33.726ZM193.154 28.4691C193.885 28.8856 194.264 29.5242 194.264 30.3572C194.255 31.3567 193.774 32.1064 192.83 32.5414C192.385 32.7542 192.284 32.7635 190.081 32.7635H187.786V30.4405V28.1267L190.22 28.1544L192.645 28.1822L193.154 28.4691Z" fill="#8B8C9D"/>
<path d="M199.354 33.7353V42.0186H201.113H202.871V33.7353V25.452H201.113H199.354V33.7353Z" fill="#8B8C9D"/>
<path d="M204.353 26.794V28.1359H207.083H209.813V35.0772V42.0186H211.525H213.237V35.0772V28.1359H215.921H218.605V26.794V25.452H211.479H204.353V26.794Z" fill="#8B8C9D"/>
<path d="M222.279 27.8768C221.742 29.2188 220.243 32.9486 218.938 36.1693L216.578 42.0186L218.355 42L220.132 41.9723L221.058 39.6863L221.983 37.391H225.037H228.091L229.017 39.6863L229.942 41.9723L231.692 42C233.33 42.0186 233.432 42.0093 233.376 41.8612C233.348 41.7687 231.867 38.0389 230.1 33.5779L226.888 25.452H225.074H223.251L222.279 27.8768ZM226.055 32.1526C226.592 33.5224 227.027 34.6608 227.027 34.6793C227.027 34.6885 226.129 34.707 225.037 34.707C223.945 34.707 223.047 34.6793 223.047 34.6423C223.047 34.5219 225.009 29.6075 225.047 29.6353C225.056 29.6538 225.519 30.7921 226.055 32.1526Z" fill="#8B8C9D"/>
<path d="M234.061 33.7353V42.0186H240.03H246V40.6766V39.3346H241.789H237.577V32.3933V25.452H235.819H234.061V33.7353Z" fill="#8B8C9D"/>
<path d="M8.14453 32.3198V37.1602L9.93076 38.0117C10.9025 38.4744 12.4481 39.2149 13.3551 39.6498L14.9933 40.4365V35.5498V30.6631L11.643 29.1083C9.79194 28.2568 8.25559 27.5349 8.21857 27.5164C8.1723 27.4979 8.14453 29.6543 8.14453 32.3198Z" fill="#8B8C9D"/>
<path d="M16.2148 36.1049L16.2426 41.0101L20.0186 42.8149C22.0918 43.7959 23.804 44.6104 23.8317 44.6104C23.8595 44.6104 23.878 42.3891 23.878 39.6774V34.7537L21.5827 33.6986C20.3241 33.1155 18.6026 32.3103 17.7419 31.9216L16.1963 31.1997L16.2148 36.1049Z" fill="#8B8C9D"/>
<path d="M0.0185102 39.6683L0.0462754 44.8049L1.24944 45.3417C1.9158 45.6471 3.4614 46.3505 4.70158 46.9058L6.94131 47.9238L6.9228 42.8891L6.89503 37.8543L4.95147 36.9195C3.87788 36.4012 2.33228 35.6608 1.49932 35.2629L0 34.5317L0.0185102 39.6683Z" fill="#8B8C9D"/>
<path d="M8.14453 43.4355L8.15379 48.4518L9.83821 49.2107C10.7637 49.6272 12.3001 50.3213 13.2626 50.7563L14.9933 51.543V46.6193L14.984 41.6956L13.3459 40.9181C12.4481 40.4832 10.9025 39.7428 9.93076 39.28L8.14453 38.4193V43.4355Z" fill="#8B8C9D"/>
<path d="M16.1963 47.1651V52.0611L18.3527 53.0236C19.5281 53.5604 21.2588 54.3378 22.1936 54.7543L23.878 55.5225V50.7283V45.9342L20.1575 44.148C18.1028 43.1669 16.3721 42.3432 16.3166 42.3247C16.2241 42.2877 16.1963 43.2965 16.1963 47.1651Z" fill="#8B8C9D"/>
</g>
<defs>
<clipPath id="clip0">
<rect width="246" height="55.9007" fill="white"/>
</clipPath>
</defs>
</svg>
