<svg width="246" height="62" viewBox="0 0 246 62" fill="none" xmlns="http://www.w3.org/2000/svg">
    <g clip-path="url(#clip0)">
        <path d="M84.2548 31.5954V41.5892H80.1035V16.1436H90.0204C95.9398 16.1436 99.0916 19.1417 99.0916 23.9079C99.0916 28.6742 95.9398 31.6723 90.0204 31.6723H84.2548V31.5954ZM84.2548 19.9873V27.6748H89.9435C93.2491 27.6748 94.7867 26.4448 94.7867 23.8311C94.7867 21.2173 93.2491 19.9873 89.9435 19.9873H84.2548Z"
              fill="#8B8C9D"/>
        <path d="M117.926 41.5889H114.082V39.5133C112.852 41.0508 111.084 42.0502 108.624 42.0502C103.781 42.0502 99.9375 38.2064 99.9375 32.902C99.9375 27.5977 103.781 23.7539 108.624 23.7539C111.084 23.7539 112.929 24.7533 114.082 26.2908V24.2152H117.926V41.5889ZM103.781 32.902C103.781 35.977 105.78 38.5139 109.009 38.5139C112.161 38.5139 114.236 36.1308 114.236 32.902C114.236 29.7502 112.161 27.2902 109.009 27.2902C105.78 27.2902 103.781 29.827 103.781 32.902Z"
              fill="#8B8C9D"/>
        <path d="M138.298 30.6727V41.6658H134.454V31.9027C134.454 28.9814 132.916 27.367 130.379 27.367C127.919 27.367 125.844 28.9814 125.844 31.9795V41.6658H122V24.2152H125.767V26.3677C127.151 24.292 129.303 23.7539 131.148 23.7539C135.376 23.7539 138.298 26.5983 138.298 30.6727Z"
              fill="#8B8C9D"/>
        <path d="M154.903 26.2912V15.375H158.747V41.5894H154.903V39.5137C153.673 41.0512 151.905 42.0506 149.445 42.0506C144.602 42.0506 140.758 38.2069 140.758 32.9025C140.758 27.5981 144.602 23.7544 149.445 23.7544C151.905 23.7544 153.75 24.7538 154.903 26.2912ZM144.602 32.9025C144.602 35.9775 146.6 38.5144 149.829 38.5144C152.981 38.5144 155.057 36.1312 155.057 32.9025C155.057 29.7506 152.981 27.2906 149.829 27.2906C146.6 27.2906 144.602 29.8275 144.602 32.9025Z"
              fill="#8B8C9D"/>
        <path d="M179.657 41.5889H175.813V39.5133C174.583 41.0508 172.815 42.0502 170.355 42.0502C165.512 42.0502 161.668 38.2064 161.668 32.902C161.668 27.5977 165.512 23.7539 170.355 23.7539C172.815 23.7539 174.66 24.7533 175.813 26.2908V24.2152H179.657V41.5889ZM165.512 32.902C165.512 35.977 167.51 38.5139 170.739 38.5139C173.891 38.5139 175.967 36.1308 175.967 32.902C175.967 29.7502 173.891 27.2902 170.739 27.2902C167.51 27.2902 165.512 29.827 165.512 32.902Z"
              fill="#8B8C9D"/>
        <path d="M194.109 16.1436C202.104 16.1436 207.332 21.2173 207.332 28.9048C207.332 36.5923 202.104 41.6661 194.109 41.6661H183.962V16.1436H194.109ZM188.113 20.0642V37.7454H194.109C200.106 37.7454 203.027 34.0554 203.027 28.9048C203.027 23.6773 200.106 20.0642 194.109 20.0642H188.113Z"
              fill="#8B8C9D"/>
        <path d="M228.088 32.902C228.088 38.1295 224.09 42.0502 218.709 42.0502C213.328 42.0502 209.33 38.1295 209.33 32.902C209.33 27.6745 213.328 23.7539 218.709 23.7539C224.09 23.7539 228.088 27.6745 228.088 32.902ZM213.251 32.902C213.251 36.2077 215.634 38.5139 218.709 38.5139C221.861 38.5139 224.167 36.2077 224.167 32.902C224.167 29.5964 221.784 27.2902 218.709 27.2902C215.634 27.2902 213.251 29.5964 213.251 32.902Z"
              fill="#8B8C9D"/>
        <path d="M246 26.5222L243.54 29.136C242.31 27.9828 241.003 27.3678 239.389 27.3678C236.468 27.3678 234.238 29.6741 234.238 32.9797C234.238 36.2853 236.468 38.5916 239.389 38.5916C241.08 38.5916 242.541 37.8228 243.694 36.7466L246.077 39.3603C244.463 41.2053 242.156 42.1278 239.543 42.1278C234.008 42.1278 230.395 38.2072 230.395 32.9797C230.395 27.7522 234.008 23.8316 239.543 23.8316C242.08 23.7547 244.463 24.6772 246 26.5222Z"
              fill="#8B8C9D"/>
        <path d="M61.5 0H0V61.5H61.5V0Z" fill="#8B8C9D"/>
        <path d="M44.9722 13.6064V22.6777L44.8185 22.7546C43.5116 21.6783 41.8204 20.9864 39.6679 20.9864C36.9004 20.9864 34.3635 21.9858 32.6722 23.9846L35.286 26.7521C36.5929 25.5221 37.9766 24.8302 39.7447 24.8302C43.0504 24.9071 45.2029 27.4439 45.2029 30.8264C45.2029 34.2089 42.9735 36.8227 39.591 36.8227C31.1347 36.8227 33.5179 20.9864 22.1404 20.9864C16.4516 20.9864 12.4541 25.2146 12.4541 30.8264V47.9696H16.5285V38.8214L16.6822 38.7446C17.9891 39.8208 19.6804 40.5127 21.8329 40.5127C24.6004 40.5127 27.1372 39.5133 28.8285 37.5146L26.2147 34.7471C24.9078 35.9771 23.5241 36.6689 21.756 36.6689C18.4504 36.5921 16.2979 34.0552 16.2979 30.6727C16.2979 27.2902 18.5272 24.6764 21.9097 24.6764C30.366 24.6764 27.9829 40.5127 39.3604 40.5127C45.0491 40.5127 49.0466 36.2846 49.0466 30.6727V13.6064H44.9722Z"
              fill="white"/>
    </g>
    <defs>
        <clipPath id="clip0">
            <rect width="246" height="61.5" fill="white"/>
        </clipPath>
    </defs>
</svg>
