<svg width="200" height="43" viewBox="0 0 200 43" fill="none" xmlns="http://www.w3.org/2000/svg">
    <g clip-path="url(#clip0)">
        <path d="M13.2616 10.0135C9.66472 10.0135 7.35316 11.3287 5.88851 13.1919L5.76894 10.4817H0V42.2458H5.97818V30.5485C7.47272 32.2523 9.96363 33.3682 13.2616 33.3682C19.6184 33.3682 24.122 28.5558 24.122 21.7905C24.122 15.0252 19.6184 10.0135 13.2616 10.0135ZM5.97818 21.7606C5.94501 20.9411 6.07777 20.1233 6.36851 19.3564C6.65925 18.5894 7.10196 17.8892 7.67007 17.2976C8.23818 16.706 8.91997 16.2353 9.67452 15.9138C10.4291 15.5923 11.2408 15.4266 12.061 15.4266C12.8812 15.4266 13.6929 15.5923 14.4474 15.9138C15.202 16.2353 15.8838 16.706 16.4519 17.2976C17.02 17.8892 17.4627 18.5894 17.7534 19.3564C18.0442 20.1233 18.1769 20.9411 18.1438 21.7606C18.1793 22.5756 18.0475 23.3893 17.7567 24.1515C17.4659 24.9138 17.0222 25.6084 16.4528 26.1927C15.8835 26.777 15.2005 27.2386 14.4461 27.549C13.6917 27.8594 12.8817 28.0122 12.066 27.9978C11.2494 28.0136 10.4383 27.8618 9.68272 27.552C8.9271 27.2422 8.24297 26.7808 7.67254 26.1964C7.10211 25.612 6.65747 24.9168 6.36606 24.1539C6.07465 23.391 5.94264 22.5765 5.97818 21.7606V21.7606ZM38.1806 33.3682C39.5636 33.4502 40.9465 33.2051 42.2171 32.6529C43.4877 32.1007 44.6103 31.2569 45.4939 30.1898L45.6035 32.88H51.4721V10.4817H45.6035L45.4939 13.1919C44.6062 12.1297 43.4829 11.2893 42.2133 10.7375C40.9437 10.1857 39.5629 9.93781 38.1806 10.0135C32.0132 10.0135 27.3701 14.8558 27.3701 21.651C27.3701 28.4462 32.0132 33.3682 38.1806 33.3682ZM45.4641 21.651C45.5047 22.4782 45.3763 23.3051 45.0869 24.0811C44.7974 24.8571 44.3529 25.566 43.7804 26.1645C43.208 26.7631 42.5196 27.2388 41.7573 27.5625C40.9949 27.8863 40.1746 28.0513 39.3464 28.0476C35.7495 28.0476 33.3682 25.2478 33.3682 21.651C33.3263 20.8403 33.4499 20.0296 33.7315 19.2683C34.0131 18.5069 34.4467 17.8109 35.0061 17.2226C35.5655 16.6344 36.2388 16.1662 36.985 15.8466C37.7312 15.5271 38.5346 15.3628 39.3464 15.3639C40.1698 15.3436 40.9885 15.4936 41.7512 15.8046C42.5139 16.1156 43.2041 16.5809 43.7785 17.1712C44.3529 17.7615 44.7991 18.4641 45.0892 19.235C45.3792 20.0059 45.5069 20.8284 45.4641 21.651V21.651ZM65.3415 19.2198C62.6513 18.7316 61.6749 18.1637 61.6749 17.0677C61.6749 15.7425 63.0997 15.075 66.039 15.075C68.3528 15.1094 70.6439 15.5373 72.8142 16.3404L73.3224 11.4582C70.9218 10.4816 68.3515 9.99054 65.76 10.0135C59.7818 10.0135 55.9259 12.8929 55.9259 17.0677C55.9259 20.7841 58.0282 22.9761 62.3425 23.7234L65.0326 24.2415C67.6531 24.7098 68.6096 25.2877 68.6096 26.4833C68.6096 27.679 67.3641 28.4163 64.4448 28.4163C61.8532 28.3725 59.291 27.8594 56.8824 26.9018L56.2547 31.8139C58.9897 32.9487 61.933 33.4953 64.8931 33.418C70.6422 33.418 74.3785 30.9172 74.3785 26.4435C74.3785 22.5676 72.1566 20.555 67.7228 19.738L65.3415 19.2198ZM86.8729 19.2198C84.1827 18.7316 83.2063 18.1637 83.2063 17.0677C83.2063 15.7425 84.6311 15.075 87.5704 15.075C89.8842 15.1094 92.1754 15.5373 94.3456 16.3404L94.8538 11.4582C92.4442 10.4926 89.867 10.0151 87.2715 10.0533C81.2933 10.0533 77.4374 12.9328 77.4374 17.1076C77.4374 20.824 79.5397 23.016 83.8539 23.7633L86.5441 24.2814C89.1546 24.7497 90.1111 25.3276 90.1111 26.5232C90.1111 27.7188 88.8756 28.4561 85.9563 28.4561C83.3689 28.3972 80.8136 27.8707 78.4138 26.9018L77.7861 31.8139C80.5211 32.9487 83.4644 33.4953 86.4245 33.418C92.1736 33.418 95.9099 30.9172 95.9099 26.4435C95.9099 22.5676 93.688 20.555 89.2542 19.738L86.8729 19.2198ZM113.446 33.3682C119.793 33.3682 124.306 28.4462 124.306 21.6709C124.306 14.8956 119.793 10.0135 113.446 10.0135C109.849 10.0135 107.537 11.3287 106.063 13.1919V0H100.184V32.88H106.043L106.163 30.4987C107.607 32.2224 110.148 33.3682 113.446 33.3682ZM106.133 21.651C106.094 20.8326 106.224 20.015 106.515 19.2491C106.806 18.4831 107.251 17.7851 107.823 17.1983C108.395 16.6116 109.081 16.1486 109.839 15.8382C110.597 15.5278 111.411 15.3765 112.23 15.3938C113.047 15.3807 113.858 15.535 114.612 15.8473C115.367 16.1595 116.05 16.6231 116.618 17.2094C117.187 17.7957 117.629 18.4923 117.918 19.2562C118.207 20.0201 118.336 20.8351 118.298 21.651C118.331 22.4705 118.199 23.2883 117.908 24.0552C117.617 24.8221 117.174 25.5224 116.606 26.114C116.038 26.7055 115.356 27.1762 114.602 27.4977C113.847 27.8193 113.036 27.985 112.215 27.985C111.395 27.985 110.583 27.8193 109.829 27.4977C109.074 27.1762 108.393 26.7055 107.825 26.114C107.256 25.5224 106.814 24.8221 106.523 24.0552C106.232 23.2883 106.099 22.4705 106.133 21.651ZM138.365 33.3682C139.747 33.4518 141.129 33.2074 142.398 32.655C143.667 32.1027 144.788 31.2579 145.668 30.1898L145.788 32.8999H151.646V10.4817H145.788L145.668 13.1919C144.783 12.1292 143.662 11.2884 142.394 10.7365C141.125 10.1847 139.746 9.93703 138.365 10.0135C132.197 10.0135 127.554 14.8558 127.554 21.651C127.554 28.4462 132.197 33.3682 138.365 33.3682ZM145.648 21.651C145.688 22.4812 145.557 23.3108 145.265 24.0889C144.972 24.8669 144.524 25.5771 143.948 26.176C143.371 26.7748 142.679 27.2497 141.912 27.5715C141.146 27.8933 140.322 28.0553 139.491 28.0476C135.894 28.0476 133.513 25.2478 133.513 21.651C133.471 20.8403 133.594 20.0296 133.876 19.2683C134.158 18.5069 134.591 17.8109 135.151 17.2226C135.71 16.6344 136.383 16.1662 137.129 15.8466C137.876 15.5271 138.679 15.3628 139.491 15.3639C140.318 15.338 141.141 15.4839 141.908 15.7924C142.676 16.1009 143.371 16.5653 143.949 17.1562C144.528 17.7471 144.978 18.4517 145.27 19.2253C145.563 19.999 145.692 20.825 145.648 21.651V21.651ZM165.516 19.2198C162.836 18.7316 161.859 18.1637 161.859 17.0677C161.859 15.7425 163.284 15.075 166.223 15.075C168.534 15.1103 170.822 15.5382 172.989 16.3404L173.507 11.4582C171.094 10.4926 168.513 10.0151 165.914 10.0533C159.936 10.0533 156.09 12.9328 156.09 17.1076C156.09 20.824 158.193 23.016 162.507 23.7633L165.197 24.2814C167.808 24.7497 168.764 25.3276 168.764 26.5232C168.764 27.7188 167.529 28.4561 164.609 28.4561C162.022 28.3981 159.466 27.8715 157.067 26.9018L156.429 31.7641C159.164 32.8998 162.107 33.4464 165.068 33.3682C170.817 33.3682 174.553 30.8673 174.553 26.3937C174.553 22.5178 172.331 20.5052 167.897 19.6881L165.516 19.2198ZM198.276 26.4136C195.902 27.5328 193.309 28.1145 190.684 28.1174C186.997 28.1174 184.198 26.6228 183.59 23.4942H199.791C201.265 15.2045 196.034 10.0135 189.15 10.0135C182.494 10.0135 177.632 14.8259 177.632 21.6908C177.632 28.5558 182.723 33.3682 190.664 33.3682C193.613 33.3919 196.519 32.6686 199.113 31.2659L198.276 26.4136ZM183.68 19.439C183.939 16.8884 186.091 15.0252 189.289 15.0252C192.487 15.0252 194.271 16.9382 194.42 19.439H183.68Z"
              fill="#8B8C9D"/>
    </g>
    <defs>
        <clipPath id="clip0">
            <rect width="200" height="42.2458" fill="white"/>
        </clipPath>
    </defs>
</svg>
