<svg width="154" height="30" viewBox="0 0 154 30" fill="none" xmlns="http://www.w3.org/2000/svg">
<g clip-path="url(#clip0_2736_2)">
<path d="M24.2788 24.0167L26.6968 13.0331L27.3935 9.83634C27.4755 9.4265 27.2296 9.09863 26.7788 9.09863H19.8935C19.8935 9.09863 19.1558 9.1806 19.0329 9.83634C19.0329 9.83634 17.9673 14.6314 17.8853 15.0413L14.7706 29.2216C14.6886 29.6314 14.9345 29.9593 15.3444 29.9593H22.1067C22.5165 29.9593 22.8444 29.6314 22.9673 29.2216L24.2788 24.0167V24.0167Z" fill="#8B8C9D"/>
<path d="M51.0824 24.0164L55.9595 1.92618C56.0415 1.51635 55.7956 1.18848 55.3857 1.18848H48.8283C47.9677 1.27044 47.8038 1.51635 47.7218 1.92618L46.4923 7.1311L41.6152 29.2213C41.5333 29.6311 41.7792 29.959 42.23 29.959H49.2382C49.648 29.959 49.9349 29.6311 50.0169 29.2213C49.9759 29.2623 51.0005 24.4262 51.0824 24.0164" fill="#8B8C9D"/>
<path d="M150.508 1.55762C152.23 1.55762 153.623 2.99204 153.623 4.79532C153.623 6.5986 152.23 8.03303 150.508 8.03303C148.787 8.03303 147.353 6.5986 147.353 4.79532C147.353 2.99204 148.787 1.55762 150.508 1.55762V1.55762ZM150.508 2.04942C149.115 2.04942 147.967 3.27893 147.967 4.75434C147.967 6.22975 149.115 7.50024 150.508 7.50024C151.902 7.50024 153.049 6.31172 153.049 4.79532C153.049 3.27893 151.902 2.04942 150.508 2.04942V2.04942ZM149.894 6.63958H149.32V3.03303C149.607 2.99204 149.894 2.95106 150.303 2.95106C150.836 2.95106 151.205 3.07401 151.41 3.23795C151.615 3.40188 151.738 3.64778 151.738 3.97565C151.738 4.46745 151.41 4.71335 151.041 4.83631V4.87729C151.369 4.91827 151.574 5.20516 151.615 5.73794C151.697 6.31172 151.779 6.51663 151.82 6.63958H151.246C151.164 6.51663 151.082 6.18876 151 5.73794C150.918 5.28713 150.672 5.12319 150.221 5.12319H149.812V6.63958H149.894ZM149.894 4.67237H150.303C150.754 4.67237 151.164 4.50844 151.164 4.05762C151.164 3.72975 150.918 3.44286 150.303 3.44286C150.139 3.44286 149.975 3.44286 149.894 3.48385V4.67237Z" fill="#8B8C9D"/>
<path d="M104.196 9.05762C96.9422 9.05762 93.9094 11.7216 92.1881 19.5084C90.3029 28.2789 94.1553 29.9593 99.5652 29.9593L106.205 30.0002C107.393 30.0002 108.131 29.0576 108.418 28.074L108.786 25.697C105.385 25.656 103.786 25.656 101.696 25.574C99.4013 25.574 99.0734 23.9757 99.5242 21.7216H109.77C110.18 21.7216 110.59 21.3937 110.672 21.0248L111.901 15.492C112.967 10.8199 110.057 9.05762 104.196 9.05762M104.278 17.5002H100.877C101.778 14.1396 102.188 13.5248 103.623 13.5248C104.893 13.5248 105.016 14.0986 104.278 17.5002" fill="#8B8C9D"/>
<path d="M65.4668 9.05762C58.2127 9.05762 55.18 11.7216 53.4586 19.5084C51.5734 28.2789 55.4259 29.9593 60.8357 29.9593L67.475 30.0002C68.6636 30.0002 69.4013 29.0576 69.6882 28.074L70.057 25.697C66.6554 25.656 65.057 25.656 62.9668 25.574C60.6718 25.574 60.3439 23.9757 60.7947 21.7216H70.9996C71.4095 21.7216 71.8193 21.3937 71.9013 21.0248L73.1308 15.492C74.1964 10.8199 71.2865 9.05762 65.4668 9.05762M65.5078 17.5002H62.1062C63.0078 14.1396 63.4177 13.5248 64.8521 13.5248C66.1636 13.5248 66.2455 14.0986 65.5078 17.5002" fill="#8B8C9D"/>
<path d="M37.0653 24.0577C37.0243 23.6479 37.0653 22.9512 37.1473 22.5414L38.7866 14.9184C38.8686 14.5086 39.2784 14.1807 39.6882 14.1807H42.6391C43.0489 14.1807 43.4587 13.8528 43.5407 13.443L44.3604 9.71348C44.4423 9.30365 44.1964 8.97578 43.7866 8.97578H40.8358C40.4259 8.97578 40.1391 8.64791 40.262 8.23807L40.9587 4.95938C41.0407 4.54955 40.7948 4.22168 40.385 4.22168H33.5407C33.1309 4.22168 32.721 4.54955 32.6391 4.95938L31.9423 8.23807C31.8604 8.64791 31.4505 8.97578 31.0407 8.97578H29.8522C29.4423 8.97578 29.0325 9.30365 28.9505 9.71348L28.1309 13.443C28.0489 13.8528 28.2948 14.1807 28.7456 14.1807H29.8931C30.303 14.1807 30.5899 14.5086 30.5079 14.9184L28.4177 24.3036C27.3931 28.9348 29.1964 29.8774 34.1964 29.9594C35.7128 29.9594 37.5981 29.9594 39.0325 29.6315C40.4259 29.1807 40.7128 25.6151 40.7538 25.3692C40.7128 25.2873 39.7702 25.3692 39.0325 25.2873C36.8194 25.3282 37.0653 24.0577 37.0653 24.0577" fill="#8B8C9D"/>
<path d="M15.6724 7.37704H20.9183C21.3282 7.37704 21.738 7.04917 21.82 6.63933L22.8446 1.9672C22.9265 1.55736 22.6806 1.22949 22.2708 1.22949H1.94291C1.53308 1.22949 1.12324 1.55736 1.04127 1.9672L0.0166816 6.63933C-0.0652856 7.04917 0.180616 7.37704 0.590452 7.37704H5.83635C6.24619 7.37704 6.53308 7.7049 6.41013 8.11474L1.73799 29.2623C1.65603 29.6721 1.90193 30 2.31176 30H9.15603C9.56586 30 9.9757 29.6721 10.0577 29.2623L14.7298 8.11474C14.8118 7.7049 15.2216 7.37704 15.6724 7.37704" fill="#8B8C9D"/>
<path d="M74.8522 6.18852C74.8522 6.59836 74.5243 6.96721 74.1145 6.96721H67.6391C67.2292 6.96721 66.9014 6.63934 66.9014 6.18852V0.737705C66.9014 0.327869 67.2292 0 67.6391 0H74.1145C74.5243 0 74.8522 0.327869 74.8522 0.737705V6.18852Z" fill="#8B8C9D"/>
<path d="M98.3364 1.18848H91.738C91.3282 1.18848 90.8364 1.51635 90.6315 1.8852L83.9921 15.4918C82.8856 17.7459 82.0659 20.4098 82.0659 20.4098C81.943 20.8196 81.902 20.7786 81.943 20.3688L82.1479 16.2295C82.1889 15.8196 82.2298 15.1229 82.2298 14.7131L82.6397 8.77044C82.6807 8.36061 82.3528 7.99176 81.943 7.99176H75.1807C74.7708 7.99176 74.443 8.31962 74.4839 8.77044L75.6725 29.2622C75.6725 29.6721 76.0413 30 76.4921 30H83.3364C83.7462 30 84.238 29.7131 84.4429 29.3442L98.7052 1.8852C98.9102 1.51635 98.7462 1.18848 98.3364 1.18848" fill="#8B8C9D"/>
<path d="M129.934 14.467C127.557 14.385 125.959 14.3441 123.459 14.3031C121.943 14.2621 120.836 14.385 120.59 15.4096C120.344 16.4752 121.082 16.6801 122.721 16.6801C127.311 16.7211 130.877 18.4014 129.852 23.5654C128.787 28.9752 126.082 30.0818 118.746 29.9588C115.426 29.9178 112.148 29.8769 109.771 29.8359L110.836 25.3277C110.918 24.9178 111.328 24.7129 111.697 24.7949C111.697 24.7949 116.369 24.7949 118.705 24.8359C120.426 24.8769 121.943 24.7949 122.23 23.5244C122.475 22.4588 121.41 22.131 119.402 22.09C114.525 22.008 111.861 20.6555 113.131 15.1637C114.074 10.9834 118.008 9.01619 123.459 9.09816C125.672 9.13914 130.426 9.2621 130.426 9.2621C130.836 9.34406 131.082 9.7539 130.959 10.1228L129.934 14.467V14.467Z" fill="#8B8C9D"/>
<path d="M140.672 24.0577C140.631 23.6479 140.672 22.9512 140.754 22.5414L142.393 14.9184C142.475 14.5086 142.885 14.1807 143.295 14.1807H146.245C146.655 14.1807 147.065 13.8528 147.147 13.443L147.967 9.71348C148.049 9.30365 147.803 8.97578 147.352 8.97578H144.401C143.991 8.97578 143.704 8.64791 143.786 8.23807L144.483 4.95938C144.565 4.54955 144.319 4.22168 143.909 4.22168H137.065C136.655 4.22168 136.245 4.54955 136.163 4.95938L135.467 8.23807C135.385 8.64791 134.975 8.97578 134.565 8.97578H133.418C133.008 8.97578 132.598 9.30365 132.516 9.71348L131.696 13.443C131.614 13.8528 131.86 14.1807 132.311 14.1807H133.459C133.868 14.1807 134.155 14.5086 134.073 14.9184L131.983 24.3036C130.959 28.9348 132.762 29.8774 137.762 29.9594C139.278 29.9594 141.163 29.9594 142.598 29.6315C143.991 29.1807 144.278 25.6151 144.319 25.3692C144.278 25.2873 143.336 25.3692 142.598 25.2873C140.426 25.3282 140.672 24.0577 140.672 24.0577" fill="#8B8C9D"/>
</g>
<defs>
<clipPath id="clip0_2736_2">
<rect width="153.623" height="30" fill="white"/>
</clipPath>
</defs>
</svg>
