<svg width="56" height="56" viewBox="0 0 56 56" fill="none" xmlns="http://www.w3.org/2000/svg">
<rect width="56" height="56" rx="15" fill="#61595F"/>
<path d="M27.4925 17.7987L29.5575 20.5462L30.17 17.6937C30.3625 16.5037 29.575 15.3837 28.385 15.1737C28.245 15.1737 28.1225 15.1562 28 15.1562C27.685 14.2287 26.8275 13.6162 25.8475 13.6162H19.7575L18.725 12.0762L18.2 12.5837C16.7825 14.0012 16.7825 16.3812 18.2 17.7987H27.4925Z" stroke="#EEBC6D" stroke-width="1.5" stroke-miterlimit="10" stroke-linecap="round" stroke-linejoin="round"/>
<path d="M20.79 28.4551V30.8176L20.37 30.8701L23.87 32.8826L27.3875 30.8701L26.9675 30.8176V28.4551" stroke="#EEBC6D" stroke-width="1.5" stroke-miterlimit="10" stroke-linecap="round" stroke-linejoin="round"/>
<path d="M29.5575 20.562L27.4925 17.8145H18.2V20.562C18.2 20.562 16.625 21.5945 18.2 23.1695C18.2 24.4645 18.5675 25.742 19.285 26.862C20.2125 28.3495 21.9625 29.2595 23.8875 29.2595C25.795 29.2595 27.5625 28.332 28.49 26.862C29.19 25.7245 29.575 24.4645 29.575 23.1695C31.1325 21.5945 29.5575 20.562 29.5575 20.562Z" stroke="#EEBC6D" stroke-width="1.5" stroke-miterlimit="10" stroke-linecap="round" stroke-linejoin="round"/>
<path d="M21.35 22.1898C21.6883 22.1898 21.9625 21.9156 21.9625 21.5773C21.9625 21.2391 21.6883 20.9648 21.35 20.9648C21.0118 20.9648 20.7375 21.2391 20.7375 21.5773C20.7375 21.9156 21.0118 22.1898 21.35 22.1898Z" fill="#EEBC6D"/>
<path d="M26.4075 22.1898C26.7458 22.1898 27.02 21.9156 27.02 21.5773C27.02 21.2391 26.7458 20.9648 26.4075 20.9648C26.0693 20.9648 25.795 21.2391 25.795 21.5773C25.795 21.9156 26.0693 22.1898 26.4075 22.1898Z" fill="#EEBC6D"/>
<path d="M36.505 32.1289V32.9514" stroke="#EEBC6D" stroke-width="1.5" stroke-miterlimit="10" stroke-linecap="round" stroke-linejoin="round"/>
<path d="M36.505 38.4453V39.2678" stroke="#EEBC6D" stroke-width="1.5" stroke-miterlimit="10" stroke-linecap="round" stroke-linejoin="round"/>
<path d="M36.505 35.7005C35.5425 35.7005 34.755 35.088 34.755 34.318C34.755 33.5655 35.5425 32.9355 36.505 32.9355C37.4675 32.9355 38.255 33.548 38.255 34.318" stroke="#EEBC6D" stroke-width="1.5" stroke-miterlimit="10" stroke-linecap="round" stroke-linejoin="round"/>
<path d="M36.505 35.6973C37.4675 35.6973 38.255 36.3098 38.255 37.0798C38.255 37.8323 37.4675 38.4623 36.505 38.4623C35.5425 38.4623 34.755 37.8498 34.755 37.0798" stroke="#EEBC6D" stroke-width="1.5" stroke-miterlimit="10" stroke-linecap="round" stroke-linejoin="round"/>
<path d="M36.505 42.9451C40.5063 42.9451 43.75 39.7014 43.75 35.7001C43.75 31.6988 40.5063 28.4551 36.505 28.4551C32.5037 28.4551 29.26 31.6988 29.26 35.7001C29.26 39.7014 32.5037 42.9451 36.505 42.9451Z" stroke="#EEBC6D" stroke-width="1.5" stroke-miterlimit="10" stroke-linecap="round" stroke-linejoin="round"/>
<path d="M30.7476 31.3085L27.3876 30.8535L23.8701 32.8835L20.3526 30.871L16.6251 31.396C14.5776 31.676 13.0551 33.4085 13.0551 35.456V41.126H31.2376" stroke="#EEBC6D" stroke-width="1.5" stroke-miterlimit="10" stroke-linecap="round" stroke-linejoin="round"/>
</svg>
