<svg width="56" height="56" viewBox="0 0 56 56" fill="none" xmlns="http://www.w3.org/2000/svg">
<rect width="56" height="56" rx="15" fill="#61595F"/>
<path d="M27.6675 17.7967L29.7325 20.5442L30.345 17.6917C30.5375 16.5017 29.75 15.3817 28.56 15.1717C28.4375 15.1542 28.315 15.1367 28.1925 15.1367C27.8775 14.2092 27.02 13.5967 26.04 13.5967H19.9325L18.9 12.0742L18.375 12.5817C16.9575 13.9992 16.9575 16.3792 18.375 17.7967H27.6675Z" stroke="#EEBC6D" stroke-width="1.5" stroke-miterlimit="10" stroke-linecap="round" stroke-linejoin="round"/>
<path d="M20.9649 28.4551V30.8176L20.5449 30.8701L24.0449 32.8826L27.5624 30.8701L27.1424 30.8176V28.4551" stroke="#EEBC6D" stroke-width="1.5" stroke-miterlimit="10" stroke-linecap="round" stroke-linejoin="round"/>
<path d="M29.7324 20.56L27.6674 17.8125H18.3749V20.56C18.3749 20.56 16.7999 21.5925 18.3749 23.1675C18.3749 24.4625 18.7424 25.74 19.4599 26.86C20.3874 28.3475 22.1374 29.2575 24.0624 29.2575C25.9699 29.2575 27.7374 28.33 28.6649 26.86C29.3649 25.7225 29.7499 24.4625 29.7499 23.1675C31.3074 21.5925 29.7324 20.56 29.7324 20.56Z" stroke="#EEBC6D" stroke-width="1.5" stroke-miterlimit="10" stroke-linecap="round" stroke-linejoin="round"/>
<path d="M21.525 22.1898C21.8633 22.1898 22.1375 21.9156 22.1375 21.5773C22.1375 21.2391 21.8633 20.9648 21.525 20.9648C21.1867 20.9648 20.9125 21.2391 20.9125 21.5773C20.9125 21.9156 21.1867 22.1898 21.525 22.1898Z" fill="#EEBC6D"/>
<path d="M26.5825 22.1898C26.9207 22.1898 27.195 21.9156 27.195 21.5773C27.195 21.2391 26.9207 20.9648 26.5825 20.9648C26.2442 20.9648 25.97 21.2391 25.97 21.5773C25.97 21.9156 26.2442 22.1898 26.5825 22.1898Z" fill="#EEBC6D"/>
<path d="M41.0899 42.9446H31.6049C31.0799 42.9446 30.6599 42.5946 30.6599 42.1746V33.0046C30.6599 32.7946 30.7649 32.6021 30.9399 32.4446L35.6824 28.6821C36.0499 28.3846 36.6274 28.3846 36.9949 28.6821L41.7374 32.4446C41.9299 32.5846 42.0174 32.7946 42.0174 33.0046V42.1746C42.0349 42.5946 41.6149 42.9446 41.0899 42.9446Z" stroke="#EEBC6D" stroke-width="1.5" stroke-miterlimit="10" stroke-linecap="round" stroke-linejoin="round"/>
<path d="M29.4874 33.5996L35.6999 28.6821C36.0849 28.3846 36.6274 28.3846 37.0124 28.6821L43.1724 33.5821" stroke="#EEBC6D" stroke-width="1.5" stroke-miterlimit="10" stroke-linecap="round" stroke-linejoin="round"/>
<path d="M38.5174 37.3613H34.1949V42.9438H38.5174V37.3613Z" stroke="#EEBC6D" stroke-width="1.5" stroke-miterlimit="10" stroke-linecap="round" stroke-linejoin="round"/>
<path d="M31.3075 31.3591L27.5625 30.8516L24.045 32.8816L20.5275 30.8691L16.8 31.3941C14.7525 31.6741 13.23 33.4066 13.23 35.4541V41.1241H29.925" stroke="#EEBC6D" stroke-width="1.5" stroke-miterlimit="10" stroke-linecap="round" stroke-linejoin="round"/>
</svg>
