<svg width="75" height="75" viewBox="0 0 75 75" fill="none" xmlns="http://www.w3.org/2000/svg">
    <mask id="path-1-outside-1_82_10" maskUnits="userSpaceOnUse" x="0" y="0" width="75" height="75" fill="black">
        <rect fill="white" width="75" height="75"/>
        <path d="M37.5 71C56.0015 71 71 56.0015 71 37.5C71 18.9985 56.0015 4 37.5 4C18.9985 4 4 18.9985 4 37.5C4 56.0015 18.9985 71 37.5 71Z"/>
    </mask>
    <path d="M37.5 71C56.0015 71 71 56.0015 71 37.5C71 18.9985 56.0015 4 37.5 4C18.9985 4 4 18.9985 4 37.5C4 56.0015 18.9985 71 37.5 71Z"
          fill="#5F797B"/>
    <path d="M67 37.5C67 53.7924 53.7924 67 37.5 67V75C58.2107 75 75 58.2107 75 37.5H67ZM37.5 67C21.2076 67 8 53.7924 8 37.5H0C0 58.2107 16.7893 75 37.5 75V67ZM8 37.5C8 21.2076 21.2076 8 37.5 8V0C16.7893 0 0 16.7893 0 37.5H8ZM37.5 8C53.7924 8 67 21.2076 67 37.5H75C75 16.7893 58.2107 0 37.5 0V8Z"
          fill="white" mask="url(#path-1-outside-1_82_10)"/>
    <g clip-path="url(#clip0_82_10)">
        <path d="M53 31.5897L50.6235 21L40.9234 25.8783L43.9276 27.2968L34.4741 47.0576L24.0715 38.014L21 44.4609L36.7758 58L50.0107 30.1787L53 31.5897Z"
              fill="white"/>
    </g>
    <defs>
        <clipPath id="clip0_82_10">
            <rect width="32" height="37" fill="white" transform="translate(21 21)"/>
        </clipPath>
    </defs>
</svg>
