<svg width="38" height="39" fill="none" xmlns="http://www.w3.org/2000/svg"><g clip-path="url(#clip0)"><path d="M19 0c5.244 0 9.994 2.136 13.437 5.585A19.08 19.08 0 0 1 38 19.073a19.079 19.079 0 0 1-5.563 13.489c-3.443 3.449-8.193 5.585-13.437 5.585S9.006 36.01 5.563 32.562A19.079 19.079 0 0 1 0 19.073 19.08 19.08 0 0 1 5.563 5.585C9.006 2.136 13.756 0 19 0z" fill="#DB6443"/><path fill-rule="evenodd" clip-rule="evenodd" d="M17.685 14.938a371.186 371.186 0 0 0-.357-3.464c-.099-.992-2.158-.9-2.926-.534-3.245 1.541-2.326 5.928-1.14 8.576 2.242 4.356 4.735 6.904 7.47 7.637 2.144.763 4.91.244 5.093-2.426.023-.367-.015-.657-.107-.886-.167-.343-1.368-.976-3.594-1.914-.434-.153-.935.022-1.513.526a1.948 1.948 0 0 1-.258.198c-.426.275-.661.298-1.049 0-1.193-.923-2.994-4.165-3.374-5.142-.092-.389.076-.694.509-.908.82-.374 1.239-.93 1.246-1.663z" fill="#fff"/></g><defs><clipPath id="clip0"><path fill="#fff" d="M0 0H38V38.147H0z"/></clipPath></defs></svg>