<svg width="38" height="38" fill="none" xmlns="http://www.w3.org/2000/svg"><circle cx="19" cy="19" r="19" fill="#DB6443"/><path fill-rule="evenodd" clip-rule="evenodd" d="M12.605 14.364c-.73 1.036-.73 2.5-.73 5.428v5.261c0 .2 0 .3.007.36a1 1 0 0 0 1.612.667c.046-.036.117-.107.259-.249.115-.115.173-.172.23-.226a4 4 0 0 1 2.558-1.06c.079-.003.16-.003.323-.003h3.323c1.806 0 2.708 0 3.423-.286a4 4 0 0 0 2.229-2.228c.286-.715.286-1.618.286-3.423s0-2.708-.286-3.423a4 4 0 0 0-2.229-2.229c-.715-.285-1.617-.285-3.422-.285H19c-2.928 0-4.392 0-5.428.73a4 4 0 0 0-.967.966zm2.832 5.428a1.188 1.188 0 1 0 0-2.375 1.188 1.188 0 0 0 0 2.375zm4.75-1.187a1.188 1.188 0 1 1-2.375 0 1.188 1.188 0 0 1 2.375 0zm2.375 1.188a1.188 1.188 0 1 0 0-2.376 1.188 1.188 0 0 0 0 2.375z" fill="#fff"/></svg>