<svg fill="none" height="38" width="38" xmlns="http://www.w3.org/2000/svg">
    <path d="M19 38c10.493 0 19-8.507 19-19S29.493 0 19 0 0 8.507 0 19s8.507 19 19 19z" fill="#db6443"/>
    <g fill="#fff">
        <path d="M13.536 12.357c-.38 0-.547.48-.259.715l5.465 6.46a.4.4 0 0 0 .509 0l5.586-6.468a.406.406 0 0 0-.25-.722c-3.8.008-11.051.015-11.051.015z"/>
        <path d="M19.433 21.174a.697.697 0 0 1-.874 0L12.38 14.12a.403.403 0 0 0-.66.311V24.96c0 .38.31.691.69.691h13.18c.38 0 .69-.311.69-.691V14.524a.403.403 0 0 0-.66-.312z"/>
    </g>
</svg>