<svg width="40" height="40" viewBox="0 0 40 40" fill="none" xmlns="http://www.w3.org/2000/svg">
    <circle r="18" transform="matrix(1 0 0 -1 20 20)" stroke="#EEBC6D" stroke-width="4"/>
    <path d="M14.5482 27V24.984C15.5242 24.072 16.4122 23.224 17.2122 22.44C18.0282 21.64 18.7242 20.896 19.3002 20.208C19.8922 19.504 20.3482 18.856 20.6682 18.264C21.0042 17.656 21.1722 17.08 21.1722 16.536C21.1722 15.784 20.9802 15.216 20.5962 14.832C20.2122 14.432 19.6842 14.232 19.0122 14.232C18.4522 14.232 17.9562 14.392 17.5242 14.712C17.0922 15.016 16.6842 15.376 16.3002 15.792L14.3802 13.896C15.1322 13.096 15.9002 12.496 16.6842 12.096C17.4682 11.68 18.4042 11.472 19.4922 11.472C20.2442 11.472 20.9242 11.592 21.5322 11.832C22.1562 12.056 22.6922 12.384 23.1402 12.816C23.5882 13.232 23.9322 13.736 24.1722 14.328C24.4122 14.92 24.5322 15.584 24.5322 16.32C24.5322 16.96 24.3962 17.616 24.1242 18.288C23.8522 18.944 23.4842 19.608 23.0202 20.28C22.5722 20.936 22.0522 21.6 21.4602 22.272C20.8842 22.928 20.2842 23.576 19.6602 24.216C20.0442 24.168 20.4682 24.128 20.9322 24.096C21.4122 24.048 21.8362 24.024 22.2042 24.024H25.2762V27H14.5482Z"
          fill="#3D405B"/>
</svg>
