<svg width="40" height="40" viewBox="0 0 40 40" fill="none" xmlns="http://www.w3.org/2000/svg">
<circle r="18" transform="matrix(1 0 0 -1 20 20)" stroke="#EEBC6D" stroke-width="4"/>
<path d="M19.4922 27.288C18.2442 27.288 17.1882 27.096 16.3242 26.712C15.4602 26.312 14.7482 25.784 14.1882 25.128L15.8202 22.896C16.2842 23.344 16.7882 23.712 17.3322 24C17.8922 24.288 18.5002 24.432 19.1562 24.432C19.9082 24.432 20.5082 24.28 20.9562 23.976C21.4042 23.656 21.6282 23.208 21.6282 22.632C21.6282 22.296 21.5642 21.992 21.4362 21.72C21.3242 21.448 21.1162 21.224 20.8122 21.048C20.5082 20.856 20.0922 20.712 19.5642 20.616C19.0362 20.504 18.3562 20.448 17.5242 20.448V17.952C18.2122 17.952 18.7802 17.904 19.2282 17.808C19.6922 17.712 20.0602 17.576 20.3322 17.4C20.6202 17.208 20.8202 16.992 20.9322 16.752C21.0602 16.496 21.1242 16.216 21.1242 15.912C21.1242 15.384 20.9642 14.976 20.6442 14.688C20.3242 14.384 19.8602 14.232 19.2522 14.232C18.7082 14.232 18.2122 14.352 17.7642 14.592C17.3322 14.832 16.8762 15.16 16.3962 15.576L14.6202 13.416C15.3242 12.808 16.0602 12.336 16.8282 12C17.6122 11.648 18.4762 11.472 19.4202 11.472C20.2042 11.472 20.9162 11.568 21.5562 11.76C22.2122 11.936 22.7642 12.208 23.2122 12.576C23.6762 12.928 24.0362 13.36 24.2922 13.872C24.5482 14.384 24.6762 14.976 24.6762 15.648C24.6762 16.448 24.4522 17.128 24.0042 17.688C23.5722 18.232 22.9482 18.68 22.1322 19.032V19.128C23.0122 19.384 23.7322 19.824 24.2922 20.448C24.8682 21.056 25.1562 21.856 25.1562 22.848C25.1562 23.552 25.0042 24.184 24.7002 24.744C24.3962 25.288 23.9882 25.752 23.4762 26.136C22.9642 26.504 22.3642 26.792 21.6762 27C20.9882 27.192 20.2602 27.288 19.4922 27.288Z" fill="#3D405B"/>
</svg>
