<svg width="20" height="20" fill="none" xmlns="http://www.w3.org/2000/svg"><path d="M17.557 0A2.444 2.444 0 0 1 20 2.443v15.113a2.444 2.444 0 0 1-2.443 2.442H2.443A2.44 2.44 0 0 1 0 17.558V2.442A2.444 2.444 0 0 1 2.443 0h15.114zM10 3.165c-1.857 0-2.089.007-2.819.04-.727.034-1.224.149-1.659.32-.45.173-.831.408-1.21.788-.38.38-.614.761-.79 1.211-.168.435-.285.932-.318 1.66-.034.729-.041.96-.041 2.818 0 1.857.007 2.089.04 2.818.034.728.149 1.224.32 1.66.173.45.408.831.788 1.21.38.38.761.614 1.211.79.435.168.932.285 1.66.318.73.034.96.04 2.818.04 1.857 0 2.089-.007 2.819-.04.727-.033 1.224-.148 1.659-.318a3.34 3.34 0 0 0 1.21-.79c.38-.379.614-.76.79-1.21.168-.436.285-.932.318-1.66.034-.73.041-.96.041-2.818s-.007-2.089-.04-2.819c-.034-.727-.149-1.224-.32-1.659a3.344 3.344 0 0 0-.788-1.211 3.367 3.367 0 0 0-1.211-.789c-.435-.168-.932-.285-1.66-.318-.73-.034-.96-.041-2.818-.041zm0 1.231c1.826 0 2.04.008 2.763.041.667.03 1.028.143 1.268.235.319.124.547.272.786.511.239.24.387.467.51.786.095.24.206.603.236 1.268.033.72.04.937.04 2.763 0 1.826-.007 2.04-.04 2.763-.03.667-.143 1.028-.235 1.268a2.122 2.122 0 0 1-.511.786 2.122 2.122 0 0 1-.786.51c-.24.095-.603.206-1.268.236-.72.033-.937.04-2.763.04-1.826 0-2.04-.007-2.763-.04-.667-.03-1.028-.143-1.268-.235a2.121 2.121 0 0 1-.786-.511 2.121 2.121 0 0 1-.51-.786c-.095-.24-.206-.603-.236-1.268-.033-.72-.04-.937-.04-2.763 0-1.826.007-2.04.04-2.763.03-.667.143-1.028.235-1.268.124-.319.272-.547.511-.786.24-.239.467-.387.786-.51.24-.095.603-.206 1.268-.236.722-.035.937-.04 2.763-.04zm0 2.093a3.511 3.511 0 1 0 0 7.023 3.511 3.511 0 0 0 0-7.023zm0 5.789a2.277 2.277 0 1 1 0-4.555 2.277 2.277 0 0 1 0 4.555zm4.469-5.926a.82.82 0 1 1-1.64.002.82.82 0 0 1 1.64-.002z" fill="#3D405B"/></svg>