<svg width="20" height="20" fill="none" xmlns="http://www.w3.org/2000/svg">
    <path d="M17.557 0A2.444 2.444 0 0 1 20 2.443v15.113a2.444 2.444 0 0 1-2.443 2.442H2.443A2.44 2.44 0 0 1 0 17.558V2.442A2.444 2.444 0 0 1 2.443 0h15.114zM6.27 17.389V8.572H3.337v8.817h2.932zm10.566 0v-5.056c0-2.707-1.446-3.968-3.374-3.968-1.555 0-2.252.855-2.64 1.455V8.572H7.89c.039.828 0 8.817 0 8.817h2.93v-4.924c0-.263.018-.528.096-.715.21-.526.694-1.072 1.503-1.072 1.06 0 1.486.809 1.486 1.994v4.717h2.93zM4.822 4.32c-1.003 0-1.657.66-1.657 1.524 0 .847.635 1.525 1.618 1.525h.019c1.022 0 1.657-.678 1.657-1.525-.018-.863-.633-1.522-1.637-1.524z"
          fill="#3D405B"/>
</svg>