<svg width="15" height="15" viewBox="0 0 15 15" fill="none" xmlns="http://www.w3.org/2000/svg">
<path d="M13.1681 0C14.1792 0 15 0.820833 15 1.83194V13.1667C15 14.1778 14.1792 14.9986 13.1681 14.9986H1.83194C0.820833 15 0 14.1792 0 13.1681V1.83194C0 0.820833 0.820833 0 1.83194 0H13.1681ZM4.70139 13.0417V6.42917H2.50278V13.0417H4.70139ZM12.6264 13.0417V9.25C12.6264 7.21944 11.5417 6.27361 10.0958 6.27361C8.92917 6.27361 8.40694 6.91528 8.11528 7.36528V6.42917H5.91806C5.94722 7.05 5.91806 13.0417 5.91806 13.0417H8.11528V9.34861C8.11528 9.15139 8.12917 8.95278 8.1875 8.8125C8.34583 8.41806 8.70833 8.00833 9.31528 8.00833C10.1097 8.00833 10.4292 8.61528 10.4292 9.50417V13.0417H12.6264ZM3.61667 3.24028C2.86389 3.24028 2.37361 3.73472 2.37361 4.38333C2.37361 5.01806 2.85 5.52639 3.5875 5.52639H3.60139C4.36806 5.52639 4.84444 5.01806 4.84444 4.38333C4.83056 3.73611 4.36944 3.24167 3.61667 3.24028Z" fill="#3D405B"/>
</svg>
