<svg width="75" height="75" viewBox="0 0 75 75" fill="none" xmlns="http://www.w3.org/2000/svg">
<mask id="path-1-outside-1_82_15" maskUnits="userSpaceOnUse" x="0" y="0" width="75" height="75" fill="black">
<rect fill="white" width="75" height="75"/>
<path d="M37.5 71C56.0015 71 71 56.0015 71 37.5C71 18.9985 56.0015 4 37.5 4C18.9985 4 4 18.9985 4 37.5C4 56.0015 18.9985 71 37.5 71Z"/>
</mask>
<path d="M37.5 71C56.0015 71 71 56.0015 71 37.5C71 18.9985 56.0015 4 37.5 4C18.9985 4 4 18.9985 4 37.5C4 56.0015 18.9985 71 37.5 71Z" fill="#DB6543"/>
<path d="M67 37.5C67 53.7924 53.7924 67 37.5 67V75C58.2107 75 75 58.2107 75 37.5H67ZM37.5 67C21.2076 67 8 53.7924 8 37.5H0C0 58.2107 16.7893 75 37.5 75V67ZM8 37.5C8 21.2076 21.2076 8 37.5 8V0C16.7893 0 0 16.7893 0 37.5H8ZM37.5 8C53.7924 8 67 21.2076 67 37.5H75C75 16.7893 58.2107 0 37.5 0V8Z" fill="white" mask="url(#path-1-outside-1_82_15)"/>
<path d="M52.7211 30.3368L37.7131 18.0988C37.5539 17.9671 37.3245 17.9671 37.1654 18.0988L22.162 30.3368C21.8437 30.5955 22.0263 31.1129 22.4335 31.1129H25.0035V42.5419C25.0035 42.7818 25.1955 42.9793 25.4389 42.9793H29.4741C29.7035 42.9793 29.8907 42.7912 29.8907 42.5607V31.3245C29.8907 31.1364 30.0452 30.9812 30.2325 30.9812H44.6554C44.8426 30.9812 44.9971 31.1364 44.9971 31.3245V42.5607C44.9971 42.7912 45.1843 42.9793 45.4137 42.9793H49.4489C49.6877 42.9793 49.8843 42.7865 49.8843 42.5419V31.1129H52.4543C52.8616 31.1129 53.0441 30.5955 52.7258 30.3368H52.7211Z" fill="white"/>
<path d="M49.5456 45.1103H43.1838C42.9918 45.1103 42.8327 44.9504 42.8327 44.7576V33.479C42.8327 33.3003 42.6922 33.1592 42.5144 33.1592H32.3608C32.1829 33.1592 32.0424 33.3003 32.0424 33.479V44.7576C32.0424 44.9504 31.8833 45.1103 31.6913 45.1103H25.3295C25.0018 45.1103 24.852 45.5242 25.1095 45.7359L37.2152 55.6128C37.3416 55.7163 37.5288 55.7163 37.6552 55.6128L49.7609 45.7359C50.0184 45.5289 49.8686 45.1103 49.5409 45.1103H49.5456Z" fill="white"/>
</svg>
