<svg width="16" height="16" fill="none" xmlns="http://www.w3.org/2000/svg"><g clip-path="url(#clip0)" fill="#8B8C9D"><path d="M7.92 9.168a4.381 4.381 0 0 0-1.376-1.322l-.032-.018a.58.58 0 0 0-.589-.004.578.578 0 0 0-.294.519v.025c.003.202.112.39.285.493.246.144.422.266.537.378a3.152 3.152 0 0 1 1.005 2.3c0 1.665-1.3 3.044-2.96 3.14a3.086 3.086 0 0 1-2.32-.845 3.247 3.247 0 0 1-1.008-2.352V2.839a.585.585 0 0 0-1.168 0v8.704a4.3 4.3 0 0 0 1.6 3.35c1.014.826 2.349 1.14 3.658.864a4.286 4.286 0 0 0 3.273-3.274 4.371 4.371 0 0 0-.611-3.315zm4.278 1.997a.593.593 0 0 1-.45.205.61.61 0 0 1-.6-.532 6.771 6.771 0 0 0-1.116-2.924 6.877 6.877 0 0 0-2.26-2.087 6.692 6.692 0 0 0-2.457-.825.61.61 0 0 1-.534-.599.611.611 0 0 1 .691-.598 8.035 8.035 0 0 1 4.602 2.272 8.02 8.02 0 0 1 2.275 4.601.64.64 0 0 1-.15.487z"/><path d="M15.84 11.175a.603.603 0 0 1-1.046-.362 10.369 10.369 0 0 0-2.25-5.6A10.397 10.397 0 0 0 7.65 1.824a10.349 10.349 0 0 0-2.313-.47A.603.603 0 1 1 5.44.15 11.632 11.632 0 0 1 16 10.708a.625.625 0 0 1-.16.467z"/></g><defs><clipPath id="clip0"><path fill="#fff" d="M0 0h16v16H0z"/></clipPath></defs></svg>