<svg width="24" height="24" viewBox="0 0 24 24" fill="none" xmlns="http://www.w3.org/2000/svg">
    <g clip-path="url(#clip0)">
        <path d="M0.156522 0.167819L0 0.32434L0.0130435 11.1765L0.0326087 22.0222L0.273913 22.5178C0.567391 23.1113 0.945652 23.4765 1.55217 23.7635L1.98913 23.9722H12.0065H22.0174L22.513 23.7309C23.1065 23.4374 23.4717 23.0591 23.7587 22.4526L23.9674 22.0156L23.987 14.3004L24 6.58521L23.8435 6.42869L23.6804 6.26565H21.75H19.8261V3.29825V0.32434L19.663 0.167819L19.5065 0.00477519H9.91304H0.319565L0.156522 0.167819ZM18.7957 11.5352L18.8152 22.0222L19.05 22.4917L19.2783 22.9613H10.8391C4.40217 22.9613 2.33478 22.9417 2.12609 22.883C1.76739 22.7787 1.22609 22.2374 1.12174 21.8787C1.06304 21.67 1.04348 19.2113 1.04348 11.3265V1.04825H9.91304H18.7826L18.7957 11.5352ZM22.9565 14.4569C22.9565 19.883 22.937 21.6765 22.8783 21.8787C22.7087 22.4396 21.9913 22.9613 21.3913 22.9613C20.7913 22.9613 20.0739 22.4396 19.9043 21.8787C19.8457 21.6765 19.8261 19.883 19.8261 14.4569V7.30912H21.3913H22.9565V14.4569Z"
              fill="#8B8C9D"/>
        <path d="M4.33687 4.34165L4.17383 4.49817V6.7873V9.07643L4.33687 9.23295L4.49339 9.396H9.91296H15.3325L15.489 9.23295L15.6521 9.07643V6.7873V4.49817L15.489 4.34165L15.3325 4.1786H9.91296H4.49339L4.33687 4.34165ZM14.6086 6.7873V8.35252H9.91296H5.21731V6.7873V5.22208H9.91296H14.6086V6.7873Z"
              fill="#8B8C9D"/>
        <path d="M4.33687 12.6894C4.23252 12.7872 4.17383 12.9242 4.17383 13.0481C4.17383 13.172 4.23252 13.309 4.33687 13.4068L4.49339 13.5698H9.91296H15.3325L15.489 13.4068C15.5934 13.309 15.6521 13.172 15.6521 13.0481C15.6521 12.9242 15.5934 12.7872 15.489 12.6894L15.3325 12.5263H9.91296H4.49339L4.33687 12.6894Z"
              fill="#8B8C9D"/>
        <path d="M4.33687 15.8198C4.23252 15.9176 4.17383 16.0545 4.17383 16.1785C4.17383 16.3024 4.23252 16.4393 4.33687 16.5372L4.49339 16.7002H9.91296H15.3325L15.489 16.5372C15.5934 16.4393 15.6521 16.3024 15.6521 16.1785C15.6521 16.0545 15.5934 15.9176 15.489 15.8198L15.3325 15.6567H9.91296H4.49339L4.33687 15.8198Z"
              fill="#8B8C9D"/>
        <path d="M4.33687 18.9506C4.23252 19.0484 4.17383 19.1854 4.17383 19.3093C4.17383 19.4332 4.23252 19.5702 4.33687 19.668L4.49339 19.8311H9.91296H15.3325L15.489 19.668C15.5934 19.5702 15.6521 19.4332 15.6521 19.3093C15.6521 19.1854 15.5934 19.0484 15.489 18.9506L15.3325 18.7876H9.91296H4.49339L4.33687 18.9506Z"
              fill="#8B8C9D"/>
    </g>
    <defs>
        <clipPath id="clip0">
            <rect width="24" height="24" fill="white"/>
        </clipPath>
    </defs>
</svg>
