<svg width="13" height="16" fill="none" xmlns="http://www.w3.org/2000/svg"><g style="mix-blend-mode:multiply" clip-path="url(#clip0)" fill="#8B8C9D"><path d="M2.299 6.538a.47.47 0 0 0 0 .938h7.21a.47.47 0 0 0 0-.938H2.3z"/><path d="M.405 16A.408.408 0 0 1 0 15.6V.405C0 .181.181 0 .405 0h7.84a.4.4 0 0 1 .294.128l3.44 3.445c.08.07.128.171.128.283V15.6c0 .213-.187.4-.406.4H.405zm.406-.8H11.3V4.261H8.245a.405.405 0 0 1-.405-.405V.8H.81v14.4zM8.65 3.456h2.08l-2.08-2.09v2.09z"/><path d="M2.299 8.617a.47.47 0 0 0 0 .939h7.21a.47.47 0 0 0 0-.939H2.3zm0 2.087a.47.47 0 0 0-.47.47c0 .255.214.469.47.469h7.21a.47.47 0 0 0 0-.939H2.3z"/></g><defs><clipPath id="clip0"><path fill="#fff" d="M0 0H12.107V16H0z"/></clipPath></defs></svg>