<svg width="24" height="24" fill="none" xmlns="http://www.w3.org/2000/svg">
    <path d="M12 24c-3.206 0-6.22-1.248-8.486-3.514A11.923 11.923 0 0 1 0 12c0-3.206 1.248-6.22 3.514-8.486A11.923 11.923 0 0 1 12 0c3.206 0 6.22 1.248 8.486 3.514A11.923 11.923 0 0 1 24 12c0 3.206-1.248 6.22-3.514 8.486A11.923 11.923 0 0 1 12 24zm0-22.574a10.509 10.509 0 0 0-7.478 3.096A10.511 10.511 0 0 0 1.426 12c0 2.822 1.099 5.482 3.096 7.478A10.503 10.503 0 0 0 12 22.574a10.5 10.5 0 0 0 7.478-3.096A10.503 10.503 0 0 0 22.574 12c0-2.822-1.099-5.482-3.096-7.478A10.511 10.511 0 0 0 12 1.426z"
          fill="#8B8C9D"/>
    <path d="M8.846 17.366a1.026 1.026 0 0 1-1.022-1.027V7.656c0-.355.182-.682.485-.874.302-.187.677-.206.998-.043l8.683 4.344c.35.173.567.528.567.917s-.216.74-.567.917L9.307 17.26a1.043 1.043 0 0 1-.46.105zM9.25 8.31v7.382l7.382-3.69L9.25 8.308z"
          fill="#8B8C9D"/>
</svg>