<svg width="75" height="75" viewBox="0 0 75 75" fill="none" xmlns="http://www.w3.org/2000/svg">
<mask id="path-1-outside-1_82_6" maskUnits="userSpaceOnUse" x="0" y="0" width="75" height="75" fill="black">
<rect fill="white" width="75" height="75"/>
<path d="M37.5 71C56.0015 71 71 56.0015 71 37.5C71 18.9985 56.0015 4 37.5 4C18.9985 4 4 18.9985 4 37.5C4 56.0015 18.9985 71 37.5 71Z"/>
</mask>
<path d="M37.5 71C56.0015 71 71 56.0015 71 37.5C71 18.9985 56.0015 4 37.5 4C18.9985 4 4 18.9985 4 37.5C4 56.0015 18.9985 71 37.5 71Z" fill="#5F797B"/>
<path d="M67 37.5C67 53.7924 53.7924 67 37.5 67V75C58.2107 75 75 58.2107 75 37.5H67ZM37.5 67C21.2076 67 8 53.7924 8 37.5H0C0 58.2107 16.7893 75 37.5 75V67ZM8 37.5C8 21.2076 21.2076 8 37.5 8V0C16.7893 0 0 16.7893 0 37.5H8ZM37.5 8C53.7924 8 67 21.2076 67 37.5H75C75 16.7893 58.2107 0 37.5 0V8Z" fill="white" mask="url(#path-1-outside-1_82_6)"/>
<path d="M28.7992 38.3777L33.2298 53.2344C33.3067 53.4601 33.0298 53.6336 32.8913 53.4601L21.3995 38.586C21.2918 38.4471 21.3841 38.2041 21.5533 38.2041H28.6146C28.7069 38.2041 28.7838 38.2736 28.7992 38.3603V38.3777ZM41.1217 26.0549L43.0909 34.4552C43.1217 34.5941 43.0294 34.7329 42.8909 34.7329H32.1221C31.9837 34.7329 31.8914 34.5941 31.9221 34.4552L33.8913 26.0549C33.922 25.9508 33.999 25.8813 34.0913 25.8813H40.9217C41.0141 25.8813 41.091 25.9508 41.1217 26.0549ZM42.9063 38.5165L37.7065 55.942C37.645 56.1503 37.3834 56.1503 37.3219 55.942L32.1221 38.5165C32.076 38.3777 32.1683 38.2215 32.3067 38.2215H42.7063C42.8447 38.2215 42.937 38.3777 42.8909 38.5165H42.9063ZM46.3984 38.2215H53.4597C53.6289 38.2215 53.7212 38.4471 53.6135 38.6033L42.1217 53.4601C41.9832 53.651 41.7063 53.4601 41.7833 53.2344L46.2138 38.3777C46.2446 38.2909 46.3215 38.2215 46.3984 38.2215ZM54.0596 34.7329H46.5061C46.4138 34.7329 46.3369 34.6635 46.3061 34.5594L44.337 26.159C44.3062 26.0202 44.3985 25.8813 44.537 25.8813H49.1368C49.1368 25.8813 49.2599 25.9161 49.306 25.9855L54.2135 34.3858C54.3058 34.542 54.2135 34.7329 54.0443 34.7329H54.0596ZM25.8609 25.8813H30.4607C30.5991 25.8813 30.6914 26.0202 30.6606 26.159L28.6915 34.5594C28.6607 34.6635 28.5838 34.7329 28.4915 34.7329H20.9534C20.7995 34.7329 20.6918 34.5246 20.7842 34.3858L25.707 25.9855C25.707 25.9855 25.7993 25.8813 25.8762 25.8813H25.8609Z" fill="white"/>
</svg>
