<svg width="40" height="40" viewBox="0 0 40 40" fill="none" xmlns="http://www.w3.org/2000/svg">
    <circle r="18" transform="matrix(1 0 0 -1 20 20)" stroke="#EEBC6D" stroke-width="4"/>
    <path d="M20.4042 27.288C19.6682 27.288 18.9482 27.144 18.2442 26.856C17.5562 26.568 16.9402 26.12 16.3962 25.512C15.8682 24.904 15.4442 24.128 15.1242 23.184C14.8042 22.224 14.6442 21.072 14.6442 19.728C14.6442 18.304 14.8122 17.072 15.1482 16.032C15.5002 14.992 15.9562 14.136 16.5162 13.464C17.0922 12.792 17.7482 12.296 18.4842 11.976C19.2362 11.64 20.0122 11.472 20.8122 11.472C21.8202 11.472 22.6922 11.656 23.4282 12.024C24.1642 12.376 24.7722 12.8 25.2522 13.296L23.4042 15.408C23.1322 15.12 22.7802 14.872 22.3482 14.664C21.9162 14.44 21.4762 14.328 21.0282 14.328C20.6122 14.328 20.2202 14.408 19.8522 14.568C19.4842 14.728 19.1562 15 18.8682 15.384C18.5962 15.752 18.3722 16.24 18.1962 16.848C18.0202 17.456 17.9162 18.2 17.8842 19.08C18.0762 18.824 18.3002 18.6 18.5562 18.408C18.8122 18.2 19.0762 18.032 19.3482 17.904C19.6202 17.76 19.8922 17.656 20.1642 17.592C20.4362 17.512 20.6922 17.472 20.9322 17.472C21.5882 17.472 22.1882 17.568 22.7322 17.76C23.2922 17.952 23.7722 18.24 24.1722 18.624C24.5882 19.008 24.9082 19.496 25.1322 20.088C25.3562 20.68 25.4682 21.376 25.4682 22.176C25.4682 22.976 25.3322 23.688 25.0602 24.312C24.7882 24.936 24.4202 25.472 23.9562 25.92C23.5082 26.368 22.9722 26.712 22.3482 26.952C21.7402 27.176 21.0922 27.288 20.4042 27.288ZM20.3322 24.648C20.8602 24.648 21.3082 24.456 21.6762 24.072C22.0602 23.672 22.2522 23.04 22.2522 22.176C22.2522 21.36 22.0602 20.792 21.6762 20.472C21.3082 20.136 20.8362 19.968 20.2602 19.968C19.8602 19.968 19.4522 20.088 19.0362 20.328C18.6362 20.552 18.2762 20.936 17.9562 21.48C18.0362 22.088 18.1562 22.592 18.3162 22.992C18.4762 23.392 18.6602 23.72 18.8682 23.976C19.0762 24.216 19.3002 24.392 19.5402 24.504C19.7962 24.6 20.0602 24.648 20.3322 24.648Z"
          fill="#3D405B"/>
</svg>
