<svg width="40" height="40" viewBox="0 0 40 40" fill="none" xmlns="http://www.w3.org/2000/svg">
    <circle r="18" transform="matrix(1 0 0 -1 20 20)" stroke="#EEBC6D" stroke-width="4"/>
    <path d="M19.5882 27.288C18.3402 27.288 17.2842 27.088 16.4202 26.688C15.5562 26.272 14.8202 25.76 14.2122 25.152L15.7962 22.92C16.2602 23.336 16.7562 23.696 17.2842 24C17.8282 24.288 18.4282 24.432 19.0842 24.432C19.8682 24.432 20.4922 24.232 20.9562 23.832C21.4202 23.432 21.6522 22.84 21.6522 22.056C21.6522 21.288 21.4282 20.704 20.9802 20.304C20.5482 19.904 19.9722 19.704 19.2522 19.704C19.0282 19.704 18.8282 19.72 18.6522 19.752C18.4762 19.768 18.3002 19.808 18.1242 19.872C17.9642 19.936 17.7882 20.016 17.5962 20.112C17.4202 20.208 17.2202 20.328 16.9962 20.472L15.4122 19.464L15.8442 11.76H24.4842V14.736H18.8922L18.6282 17.592C18.9162 17.464 19.1882 17.376 19.4442 17.328C19.7162 17.264 20.0122 17.232 20.3322 17.232C20.9882 17.232 21.6042 17.328 22.1802 17.52C22.7722 17.712 23.2922 18 23.7402 18.384C24.1882 18.768 24.5402 19.256 24.7962 19.848C25.0522 20.44 25.1802 21.144 25.1802 21.96C25.1802 22.808 25.0282 23.56 24.7242 24.216C24.4202 24.872 24.0122 25.432 23.5002 25.896C22.9882 26.344 22.3882 26.688 21.7002 26.928C21.0282 27.168 20.3242 27.288 19.5882 27.288Z"
          fill="#3D405B"/>
</svg>
