<svg width="156" height="31" fill="none" xmlns="http://www.w3.org/2000/svg">
    <path d="M24.112 10.742v1.48c0 .056-.052.056-.104.113H17.85c-.156 0-.208-.057-.208-.228V.442c0-.17.052-.227.208-.227h5.791c.157 0 .21.057.21.227V1.58c0 .171-.053.228-.21.228h-4.278c-.156 0-.208.057-.208.228V5.45c0 .17.052.227.208.227h4.122c.26 0 .26 0 .26.285v1.024c0 .285 0 .285-.26.285h-4.07c-.156 0-.208.057-.208.227v3.073c0 .228 0 .228.209.228h4.486c.105-.057.157-.057.21-.057zm10.947-.682c.313.17.574.341.835.512.678.342 1.357.399 2.087.285.94-.171 1.461-1.081 1.2-2.106-.104-.341-.26-.626-.522-.853l-.939-.683c-.678-.455-1.408-.797-2.035-1.252-.73-.455-1.2-1.081-1.356-1.935-.209-1.138-.052-2.219.783-3.13.417-.454.99-.739 1.565-.796 1.148-.17 2.191 0 3.234.57.157.113.314.17.418.284.052 0 .052.057.104.057-.26.455-.522.91-.782 1.308-.366-.17-.679-.398-1.044-.512-.626-.227-1.304-.284-1.93-.057-.783.285-.992 1.138-.73 1.878.208.57.625.91 1.095 1.138.626.398 1.304.74 1.93 1.081a5.1 5.1 0 0 1 1.305 1.138c.47.626.626 1.31.626 2.106 0 .853-.261 1.65-.887 2.276-.47.512-1.096.796-1.722.91-1.043.17-2.035.057-2.974-.398-.365-.17-.73-.455-1.095-.683.26-.341.521-.74.834-1.138zM0 .273h1.304c.105 0 .157.057.209.171.417 1.309.887 2.675 1.304 4.097.522 1.536.992 3.13 1.513 4.666l.053.057c.26-.854.521-1.65.782-2.504.626-1.99 1.305-3.983 1.93-5.974.157-.513.157-.513.679-.513h.939a41.91 41.91 0 0 1-.47 1.423c-.782 2.39-1.513 4.78-2.295 7.113-.365 1.138-.73 2.219-1.096 3.357-.052.114-.104.17-.209.17h-.626c-.104 0-.156-.056-.208-.17-.47-1.423-.887-2.845-1.357-4.21C1.826 5.905 1.2 3.915.522 1.98A21.295 21.295 0 0 0 0 .273zm53.321 6.77v5.007c0 .285 0 .285-.209.285H52.07c-.261 0-.261 0-.261-.285V1.979c0-.17-.052-.228-.209-.228h-1.878c-.104.057-.156 0-.156-.227V.442c0-.17.052-.227.156-.227h5.791c.105 0 .157 0 .157.17V1.58c0 .114-.052.171-.157.171h-2.035c-.104 0-.156.057-.156.17v5.122zm19.462 4.666a416.57 416.57 0 0 1-2.609-7.397L68.766.386c-.053-.114-.105-.171-.21-.171h-.677c-.053 0-.157.057-.157.114-.574 1.536-1.096 3.13-1.67 4.666-.626 1.764-1.252 3.584-1.878 5.348a44.932 44.932 0 0 1-.678 1.935h1.409c.156 0 .209-.057.26-.17.366-1.082.731-2.163 1.096-3.187l.73-2.22v-.056c.105-.228.157-.512.262-.74.26-.74.521-1.536.782-2.276.052-.114.052-.228.105-.398.156.455.313.853.417 1.251.26.74.47 1.423.73 2.163v.057l.626 1.877v.057c.418 1.195.783 2.39 1.2 3.528.053.114.105.17.21.17h1.512c.052-.227 0-.454-.052-.625zM90.73 28.611c.365.114.73.227 1.096.398 0 0-.052.057-.052.114-.261.341-.574.74-.835 1.081-.052.114-.156.114-.26.057-.366-.228-.731-.398-1.044-.626a.308.308 0 0 0-.313 0c-.783.455-1.566.683-2.453.683-1.095 0-2.087-.228-3.078-.854-1.2-.796-2.034-1.934-2.452-3.357-.313-1.024-.365-2.105-.209-3.186.21-1.366.783-2.561 1.67-3.471.678-.683 1.46-1.195 2.4-1.423 1.513-.398 2.974-.228 4.33.57 1.096.625 1.879 1.65 2.348 2.901.418 1.081.522 2.162.418 3.3a6.803 6.803 0 0 1-1.514 3.585l-.104.114c.052.057.052.057.052.114zm-3.026-1.309c.366-.341.678-.626.992-.91.26.398.521.796.834 1.195.574-.626.992-1.252 1.2-2.106.209-.796.261-1.536.105-2.333-.157-.967-.522-1.878-1.252-2.503-1.357-1.252-2.87-1.423-4.487-.74a3.573 3.573 0 0 0-1.93 2.048c-.418.91-.523 1.935-.366 2.96.157 1.137.678 2.104 1.513 2.901.887.797 1.878 1.081 2.974.968.365-.057.73-.171 1.148-.285l-.73-1.195zm23.009-9.22v7.682c0 .967-.261 1.934-.835 2.731a4.107 4.107 0 0 1-2.191 1.65 4.474 4.474 0 0 1-2.296.114c-.73-.17-1.356-.455-1.93-.967-.626-.57-1.044-1.31-1.252-2.22-.157-.512-.209-1.08-.209-1.65V18.31c0-.228 0-.228.261-.228h1.252v7.113c0 .569 0 1.138.157 1.65.26.91.782 1.536 1.669 1.764.574.17 1.096.227 1.67.057.991-.228 1.669-.854 1.93-1.935.104-.455.157-.91.157-1.366V18.31c0-.228 0-.228.208-.228h1.409zm36.156 0h1.565c.105 0 .209.057.261.17.835 1.423 1.67 2.846 2.557 4.325.052.114.104.228.208.342a2.06 2.06 0 0 1 .366-.57c.782-1.365 1.617-2.73 2.4-4.096.052-.057.156-.171.208-.171h1.461c.052 0 .052 0 .105.057-.209.398-.47.74-.679 1.138-1.043 1.707-2.035 3.471-3.078 5.178-.052.114-.104.228-.104.341v5.178c0 .171-.052.228-.209.228h-1.043c-.261 0-.261 0-.261-.284v-5.122c0-.113-.053-.227-.105-.341l-3.6-6.145c0-.114 0-.171-.052-.228zm-8.871.005v1.422c0 .114-.104.114-.156.114h-2.087c-.105 0-.105.057-.105.114v10.071c0 .285 0 .285-.26.285h-1.044c-.156 0-.209-.057-.209-.228V19.738c0-.171-.052-.228-.208-.228h-1.879c-.156 0-.208-.057-.208-.228v-1.138c0-.113.052-.17.156-.17h5.844c.052.114.104.114.156.114zm-17.111-.005h1.461v12.063h-1.461V18.082zM71.739 28.554h-6.991v1.538h6.991v-1.538zm0-5.234h-6.991v1.538h6.991V23.32zm0-5.293h-6.991v1.538h6.991v-1.538z"
          fill="#3D405B"/>
</svg>