<svg width="20" height="20" fill="none" xmlns="http://www.w3.org/2000/svg"><path d="M17.5 20h-15A2.5 2.5 0 0 1 0 17.5v-15A2.5 2.5 0 0 1 2.5 0h15A2.5 2.5 0 0 1 20 2.5v15a2.5 2.5 0 0 1-2.5 2.5zm-9.82-4.92c4.714 0 7.294-3.91 7.294-7.295 0-.11 0-.22-.005-.33.5-.359.935-.814 1.28-1.33-.46.206-.956.342-1.477.406.53-.314.935-.82 1.13-1.42a5.101 5.101 0 0 1-1.63.62 2.567 2.567 0 0 0-4.37 2.34 7.283 7.283 0 0 1-5.285-2.678 2.57 2.57 0 0 0 .796 3.426 2.576 2.576 0 0 1-1.16-.32v.034a2.57 2.57 0 0 0 2.056 2.515 2.533 2.533 0 0 1-1.155.046 2.563 2.563 0 0 0 2.394 1.78 5.138 5.138 0 0 1-3.794 1.065 7.327 7.327 0 0 0 3.926 1.14z" fill="#3D405B"/></svg>